<svg width="240" height="122" viewBox="0 0 240 122" fill="none" xmlns="http://www.w3.org/2000/svg">
<path d="M40.7824 116.229L14.1778 99.5648C10.8013 97.4498 8.61884 93.8675 8.28797 89.8971L8.111 87.7735C8.71233 89.1372 11.2727 92.8925 14.0832 94.097C16.5423 95.1509 26.9032 96.5468 28.4867 96.2048C27.0815 96.5083 27.2569 98.5363 27.7841 99.3665C31.2751 104.864 35.3979 108.738 40.7824 116.229Z" fill="white"/>
<path d="M14.7981 34.7148C15.097 30.9803 18.152 28.0496 21.889 27.9122L224.787 20.4521C228.647 20.3102 231.934 23.1897 232.304 27.0365L238.142 87.7632C238.558 92.0942 235.139 95.861 230.792 95.861L17.7925 95.8611C13.5321 95.8611 10.1939 92.2369 10.5345 87.9813L14.7981 34.7148Z" fill="white" stroke="white" stroke-width="0.781312"/>
<path d="M12.5393 31.1358C12.7907 27.7378 15.5667 25.0633 18.9658 24.9441L222.773 17.7995C226.285 17.6764 229.263 20.3167 229.565 23.8194L234.949 86.3202C235.285 90.2143 232.202 93.5773 228.297 93.5772L15.0105 93.5762C11.174 93.5762 8.1609 90.3248 8.4445 86.4909L12.5393 31.1358Z" fill="#BF1A69" stroke="white" stroke-width="0.781312"/>
</svg>
