<svg width="352" height="254" viewBox="0 0 352 254" fill="none" xmlns="http://www.w3.org/2000/svg">
<path d="M77.4211 240.041C75.7368 239.869 74.1309 239.651 72.5096 239.368C67.5694 238.477 62.7113 237.15 57.9913 235.4C53.1031 233.632 48.3934 231.828 43.8324 230.083L43.4012 229.915C28.9731 224.491 17.0332 213.781 9.9587 199.919L9.77234 199.566C7.18363 194.587 0.273525 181.306 1.58163 163.246C1.90427 158.796 2.53542 154.936 2.95396 152.387L2.98627 152.025C3.79093 147.112 4.63099 142.161 5.44051 137.373L5.84289 135.005C6.59265 130.569 7.3429 126.128 8.09361 121.682L9.08719 115.843C9.19016 115.224 9.30699 114.569 9.42381 113.915L9.44377 113.691C9.63593 112.609 9.81281 111.578 9.91289 110.933C10.4932 106.968 11.4348 103.071 12.7254 99.2902C13.0929 93.5868 14.2265 87.969 16.0951 82.592C16.1773 77.6072 16.7477 72.6482 17.7981 67.7879C20.4432 55.4618 25.494 44.6878 32.8112 35.7798C41.0529 25.7351 50.9201 18.1305 62.123 13.1785C73.5358 8.1351 85.6168 5.84262 99.0099 6.16802C101.225 6.22233 103.449 6.3635 105.623 6.5856C106.323 6.65712 107.028 6.72918 107.726 6.82734C112.111 6.17835 116.549 5.92828 120.986 6.08009L121.516 6.09657C123.011 6.12569 125.529 6.18402 128.555 6.49324L128.771 6.51529C132.487 5.78214 136.263 5.37639 140.055 5.3026L142.183 5.262L144.599 5.2131C146.574 5.16222 148.551 5.20833 150.505 5.33805C154.254 4.83531 158.034 4.58401 161.821 4.58576C163.214 4.57216 164.829 4.51667 166.533 4.45967C170.028 4.34362 174.382 4.18627 179.076 4.31645C180.767 4.35481 182.473 4.46458 184.152 4.63613C184.92 4.71465 185.683 4.79263 186.448 4.91377C191.006 3.90927 195.655 3.36679 200.328 3.29433C204.477 3.22366 208.992 3.04516 213.358 2.87292L219.756 2.60192L220.981 2.56045C222.649 2.49969 224.541 2.42952 226.451 2.38817C228.362 2.34681 230.418 2.39565 232.403 2.53925C235.714 2.11741 239.047 1.8801 242.388 1.82834L242.856 1.81703C244.395 1.77533 246.053 1.70285 247.829 1.63153C251.971 1.45269 256.664 1.24933 261.804 1.32291C264.043 1.35273 266.336 1.48491 268.621 1.7183C273.482 2.24201 278.301 3.13692 283.036 4.39541C299.733 8.71413 314.381 18.4309 325.396 32.4915C333.561 42.906 337.351 53.2929 339.929 62.0776C340.261 63.1867 340.587 64.2953 340.913 65.4038C341.51 67.4648 342.067 69.3712 342.548 70.8933C346.306 82.3469 345.975 92.0224 345.836 96.6747L345.813 97.4036C345.649 103.774 344.661 110.086 342.874 116.178C342.921 117.796 342.9 119.406 342.822 121.049C344.642 125.724 346.287 130.682 347.812 136.031C350.699 145.991 351.664 156.402 350.654 166.692C350.636 166.894 350.619 167.091 350.601 167.289C350.601 167.289 350.579 167.539 350.576 167.566C350.167 174.513 348.841 181.364 346.635 187.936C343.059 198.254 338.821 206.643 333.248 214.337C329.164 219.975 324.479 225.137 319.276 229.731C315.842 232.73 312.149 235.411 308.241 237.743L307.825 238.002C293.711 247.366 279.503 249.984 274.81 250.849C266.822 252.425 258.649 252.887 250.515 252.221L247.815 251.945C243.735 251.529 240.225 251.041 236.765 250.413C232.209 249.562 227.744 248.25 223.437 246.498L223.299 246.446L222.969 246.332C222.042 246 220.948 245.588 219.712 245.149C211.668 247.568 203.224 248.396 194.839 247.587C193.018 247.4 191.486 247.298 190.163 247.243C188.84 247.189 187.446 247.095 186.073 246.954C179.811 246.326 173.663 244.778 167.823 242.359C166.044 242.818 164.237 243.229 162.402 243.59C156.867 244.643 151.234 245.121 145.591 245.017C145.225 245.017 144.869 245.013 144.587 245.022C141.302 245.126 138.012 245.01 134.738 244.677C129.636 244.146 124.59 243.118 119.673 241.606C118.351 241.772 116.993 241.87 115.688 241.973C111.655 242.188 107.608 242.095 103.582 241.693L102.971 241.63L89.0016 240.741L84.0104 240.424L83.4807 240.408C82.2233 240.392 80.0213 240.307 77.4211 240.041Z" stroke="white" stroke-opacity="0.3" stroke-miterlimit="10"/>
</svg>
