<svg width="246" height="146" viewBox="0 0 246 146" fill="none" xmlns="http://www.w3.org/2000/svg">
<path d="M14.3072 57.0659C13.7232 55.0977 13.0461 53.3404 12.677 51.5232C12.284 49.1406 12.7212 46.7025 13.9135 44.6282C15.0089 42.5896 16.323 40.6595 17.5003 38.6562C17.5814 38.5115 17.631 38.3507 17.6458 38.1845C17.6606 38.0182 17.6403 37.8503 17.5863 37.6919C15.8069 33.822 15.5657 29.8566 16.4555 25.7165C17.2003 22.2496 18.3596 19.0187 20.5996 16.2961C23.3827 12.9031 26.6111 10.1148 30.6976 8.30653C35.3864 6.23727 40.2985 5.59402 45.3124 5.71384C49.1373 5.7367 52.9221 6.58523 56.4145 8.20293C56.5379 8.25844 56.6715 8.28569 56.8059 8.28268C56.9403 8.27968 57.072 8.2465 57.1916 8.18555C60.0433 5.98774 63.3747 5.50017 66.8595 5.61429C68.3054 5.65988 69.7676 5.64261 71.2013 5.82672C73.0502 6.05864 74.5231 7.11232 75.8354 8.41841L77.907 10.501C79.2035 9.36465 80.4209 8.16112 81.7715 7.13248C83.7792 5.63611 86.2085 4.82505 88.7132 4.81492C90.3094 4.78446 91.9046 4.76467 93.5017 4.72356C95.399 4.64593 97.2805 5.15702 98.895 6.18855C99.0387 6.27709 99.2 6.3319 99.3667 6.34893C99.5335 6.36597 99.7014 6.3448 99.8582 6.28696C102.946 4.24229 106.425 4.1193 109.965 4.09387C115.096 4.03744 120.221 3.67943 125.346 3.81055C127.779 3.87092 130.239 4.62769 132.616 5.31672C134.169 5.76575 135.584 6.63609 137.037 7.38126C137.51 7.61774 137.812 7.68092 138.222 7.24973C141.088 4.23621 144.603 2.88566 148.773 2.81714C155.588 2.70155 162.395 2.36483 169.21 2.12564C171.224 2.05188 173.237 1.99946 175.256 1.92624C177.082 1.94008 178.883 2.38935 180.514 3.23765C180.867 3.44321 181.284 3.49934 181.674 3.39376C184.818 1.44079 188.328 1.44997 191.842 1.35206C197.465 1.20072 203.089 0.791519 208.707 0.870882C211.684 0.986365 214.64 1.45809 217.515 2.27622C223.091 3.71687 227.572 6.90035 231.191 11.5174C233.89 14.965 235.179 18.9138 236.387 22.9995C237.399 26.42 238.346 29.8554 239.451 33.2424C240.336 35.951 240.118 38.6867 240.05 41.4162C239.931 46.205 238.115 50.3097 235.38 54.057C235.191 54.2584 235.067 54.513 235.022 54.7881C234.978 55.0632 235.016 55.3464 235.131 55.6014C235.599 56.7244 235.985 57.9359 236.374 59.1153C237.895 63.6147 237.021 67.6382 234.117 71.25C233.89 71.5333 233.673 71.8229 233.474 72.0876C238.535 79.5453 241.677 87.8499 244.107 96.3936C245.076 99.7387 245.404 103.234 245.074 106.691C244.763 109.756 244.761 112.885 243.729 115.817C242.189 120.272 240.296 124.53 237.525 128.387C235.731 130.884 233.669 133.17 231.376 135.205C229.681 136.709 227.6 137.765 225.723 139.036C221.517 141.832 216.811 143.254 211.892 144.16C208.559 144.862 205.142 145.105 201.736 144.88C198.695 144.607 195.651 144.259 192.65 143.721C190.978 143.415 189.379 142.645 187.752 142.064C184.663 140.969 181.566 139.965 178.926 137.937C176.755 136.258 174.637 134.51 172.481 132.784C171.385 131.903 170.303 131.002 169.207 130.127C166.32 127.837 163.444 125.538 161.099 122.471C161.066 122.844 161.032 123.222 160.998 123.6C160.634 126.251 160.596 129 159.828 131.545C158.049 137.368 152.338 140.898 146.35 140.324C143.839 140.067 141.322 139.89 138.808 139.784C136.81 139.746 134.849 139.197 133.108 138.186C129.117 135.826 125.064 133.568 121.161 131.051C119.78 130.168 118.747 128.708 117.562 127.517C116.357 128.469 115.013 129.654 113.591 130.713C109.198 133.928 104.14 136.101 98.7889 137.072C95.6582 137.693 92.5326 137.422 89.4049 137.532C83.5447 137.729 78.3518 135.328 73.1126 133.088C71.337 132.331 69.5752 131.539 67.8397 130.689C67.5687 130.508 67.2394 130.442 66.9229 130.504C66.6063 130.566 66.3278 130.752 66.1476 131.022C64.3676 133.089 61.8488 134.356 59.1353 134.547C57.0316 134.671 54.9031 134.357 52.7901 134.227C48.587 133.948 44.3844 133.683 40.1823 133.433C36.1463 133.188 31.9826 133.241 27.9794 132.627C26.0662 132.257 24.1859 131.723 22.3587 131.032C17.7591 129.363 13.1934 127.611 8.62194 125.865C6.50767 125.074 4.76324 123.498 3.74601 121.458C2.49093 119.034 1.12914 116.616 1.33458 113.776C1.48782 111.642 1.84636 109.528 2.18909 107.412C3.10721 101.823 4.05643 96.2432 4.99992 90.6677C6.07833 84.2942 7.16199 77.9213 8.25092 71.5489C8.60327 69.5043 8.98721 67.4629 9.28739 65.4076C9.77627 62.0706 11.5575 59.5483 13.9845 57.4093L14.3072 57.0659Z" stroke="white" stroke-opacity="0.8" stroke-miterlimit="10"/>
</svg>
