<svg width="283" height="123" viewBox="0 0 283 123" fill="none" xmlns="http://www.w3.org/2000/svg">
<path d="M54 120.794L16.1346 97.076C11.329 94.0659 8.22278 88.9672 7.75187 83.3163L7.5 80.2939C8.35584 82.2348 12 87.5796 16 89.2939C19.5 90.7939 34.2463 92.7807 36.5 92.2939C34.5 92.7259 34.7496 95.6122 35.5 96.7939C40.4686 104.619 46.3364 110.133 54 120.794Z" fill="white"/>
<path d="M16.5962 41.9212C17.2571 36.8602 21.4651 32.9902 26.5534 32.7639L262.709 22.2574C268.031 22.0207 272.649 25.8337 273.425 31.1048L280.584 79.7584C281.515 86.0913 276.584 91.8046 270.186 91.8046L21.8901 91.8045C15.6179 91.8045 10.801 86.3026 11.6151 80.0683L16.5962 41.9212Z" fill="white" stroke="white" stroke-width="1.11201"/>
<path d="M13.1052 37.9319C13.6685 33.313 17.4997 29.767 22.1393 29.5706L260.047 19.4984C264.9 19.2929 269.091 22.8088 269.734 27.625L276.428 77.785C277.187 83.4722 272.743 88.5523 267.008 88.5523L17.5175 88.5524C11.8781 88.5524 7.53186 83.6309 8.21617 78.0198L13.1052 37.9319Z" fill="#BF1A69" stroke="white" stroke-width="1.11201"/>
</svg>
