<svg width="583" height="103" viewBox="0 0 583 103" fill="none" xmlns="http://www.w3.org/2000/svg">
<path d="M46.726 102.057L8.8606 78.3394C4.05497 75.3293 0.948732 70.2306 0.47782 64.5797L0.225952 61.5573C1.08179 63.4982 4.72595 68.843 8.72595 70.5573C12.226 72.0573 26.9723 74.044 29.226 73.5573C27.226 73.9892 27.4756 76.8756 28.226 78.0572C33.1946 85.882 39.0624 91.396 46.726 102.057Z" fill="white"/>
<path d="M9.294 23.4076C9.96712 18.2526 14.3132 14.3483 19.4966 14.2382L535.109 3.28703C540.34 3.17593 544.816 6.96058 545.578 12.1389L552.77 61.0178C553.703 67.3525 548.768 73.0683 542.37 73.0683L14.6123 73.0683C8.34332 73.0683 3.52731 67.5702 4.34146 61.3353L9.294 23.4076Z" fill="white" stroke="white" stroke-width="1.11201"/>
<path d="M5.8082 19.3905C6.38144 14.6901 10.3326 11.114 15.054 11.0186L532.459 0.557962C537.233 0.461439 541.301 3.95167 541.933 8.68755L548.653 59.0449C549.412 64.734 544.966 69.8166 539.23 69.8166L10.2396 69.8161C4.60336 69.8161 0.258196 64.8984 0.942569 59.2868L5.8082 19.3905Z" fill="#BF1A69" stroke="white" stroke-width="1.11201"/>
<path d="M19.9699 28.6032H25.2025V36.8063C25.2025 37.7841 25.3724 38.5712 25.7121 39.1678C26.0518 39.7561 26.578 40.1829 27.2906 40.448C28.0115 40.7049 28.9354 40.8333 30.0622 40.8333C30.46 40.8333 30.9281 40.8209 31.4667 40.796C32.0053 40.7629 32.5605 40.7173 33.1322 40.6593C33.7122 40.6013 34.2591 40.5309 34.7728 40.448C35.2866 40.3651 35.7133 40.2699 36.053 40.1621V44.4129C35.705 44.5289 35.27 44.6324 34.748 44.7236C34.2342 44.8064 33.6915 44.881 33.1198 44.9473C32.548 45.0053 31.9929 45.0509 31.4543 45.084C30.9157 45.1172 30.4517 45.1337 30.0622 45.1337C28.0156 45.1337 26.2341 44.8437 24.7178 44.2637C23.2014 43.6754 22.029 42.7681 21.2004 41.5418C20.3801 40.3154 19.9699 38.737 19.9699 36.8063V28.6032ZM35.1208 28.6032H40.3783V54.0577H35.1208V28.6032ZM51.0455 54.4182C49.8274 54.4182 48.742 54.2069 47.7891 53.7843C46.8362 53.3534 46.0822 52.7196 45.527 51.8827C44.9801 51.0375 44.7067 49.9852 44.7067 48.7257C44.7067 47.6651 44.9014 46.7744 45.2908 46.0535C45.6803 45.3326 46.2106 44.7526 46.8818 44.3134C47.5529 43.8743 48.3152 43.5428 49.1687 43.3191C50.0304 43.0954 50.9336 42.9379 51.8782 42.8468C52.9885 42.7308 53.8834 42.6231 54.5629 42.5236C55.2423 42.4159 55.7353 42.2585 56.0419 42.0513C56.3485 41.8442 56.5018 41.5376 56.5018 41.1316V41.057C56.5018 40.2699 56.2532 39.6608 55.756 39.23C55.2672 38.7991 54.5712 38.5837 53.668 38.5837C52.7151 38.5837 51.9569 38.795 51.3935 39.2175C50.83 39.6318 50.4572 40.1539 50.2749 40.7836L45.3779 40.3859C45.6264 39.2258 46.1153 38.2232 46.8445 37.3781C47.5736 36.5246 48.5141 35.87 49.6658 35.4143C50.8259 34.9503 52.1682 34.7183 53.6928 34.7183C54.7534 34.7183 55.7685 34.8425 56.7379 35.0911C57.7157 35.3397 58.5816 35.725 59.3356 36.247C60.0979 36.769 60.6986 37.4402 61.1378 38.2605C61.577 39.0725 61.7965 40.0461 61.7965 41.1813V54.0577H56.7752V51.4104H56.6261C56.3195 52.007 55.9093 52.5331 55.3956 52.9888C54.8819 53.4363 54.2646 53.7884 53.5437 54.0453C52.8228 54.2939 51.9901 54.4182 51.0455 54.4182ZM52.5618 50.7641C53.3407 50.7641 54.0284 50.6108 54.625 50.3042C55.2216 49.9893 55.6898 49.5667 56.0295 49.0364C56.3692 48.5061 56.5391 47.9054 56.5391 47.2342V45.2083C56.3734 45.316 56.1455 45.4155 55.8555 45.5066C55.5738 45.5895 55.2547 45.6682 54.8984 45.7428C54.5422 45.809 54.1859 45.8712 53.8296 45.9292C53.4733 45.9789 53.1501 46.0245 52.8601 46.0659C52.2386 46.1571 51.6959 46.3021 51.2319 46.5009C50.7679 46.6998 50.4074 46.9691 50.1506 47.3088C49.8937 47.6402 49.7653 48.0545 49.7653 48.5517C49.7653 49.2726 50.0263 49.8236 50.5483 50.2048C51.0786 50.5776 51.7498 50.7641 52.5618 50.7641ZM74.53 54.4306C72.5745 54.4306 70.8925 54.0163 69.4839 53.1877C68.0835 52.3508 67.0063 51.1908 66.2523 49.7076C65.5066 48.2244 65.1337 46.5175 65.1337 44.5869C65.1337 42.6314 65.5107 40.9162 66.2647 39.4413C67.0271 37.9581 68.1084 36.8022 69.5087 35.9736C70.909 35.1367 72.5745 34.7183 74.5052 34.7183C76.1706 34.7183 77.629 35.0207 78.8802 35.6256C80.1313 36.2304 81.1215 37.0798 81.8507 38.1735C82.5799 39.2673 82.9817 40.5516 83.0563 42.0265H78.0598C77.919 41.0736 77.5461 40.3071 76.9412 39.7271C76.3446 39.1388 75.5616 38.8447 74.5922 38.8447C73.7719 38.8447 73.0551 39.0684 72.442 39.5158C71.8371 39.955 71.3648 40.5972 71.025 41.4423C70.6853 42.2875 70.5155 43.3108 70.5155 44.5123C70.5155 45.7303 70.6812 46.7661 71.0126 47.6195C71.3523 48.473 71.8288 49.1234 72.442 49.5709C73.0551 50.0183 73.7719 50.242 74.5922 50.242C75.197 50.242 75.7398 50.1178 76.2204 49.8692C76.7092 49.6206 77.1111 49.2602 77.426 48.7879C77.7491 48.3073 77.9604 47.7314 78.0598 47.0602H83.0563C82.9734 48.5186 82.5757 49.8029 81.8631 50.9132C81.1588 52.0152 80.1852 52.877 78.9423 53.4984C77.6994 54.1199 76.2286 54.4306 74.53 54.4306ZM85.1444 39.1305V34.9668H102.446V39.1305H96.2932V54.0577H91.247V39.1305H85.1444ZM113.597 54.4306C111.667 54.4306 109.997 54.0205 108.589 53.2001C107.188 52.3715 106.107 51.2198 105.345 49.7449C104.582 48.2617 104.201 46.5424 104.201 44.5869C104.201 42.6148 104.582 40.8913 105.345 39.4164C106.107 37.9332 107.188 36.7815 108.589 35.9611C109.997 35.1325 111.667 34.7183 113.597 34.7183C115.528 34.7183 117.194 35.1325 118.594 35.9611C120.002 36.7815 121.088 37.9332 121.85 39.4164C122.613 40.8913 122.994 42.6148 122.994 44.5869C122.994 46.5424 122.613 48.2617 121.85 49.7449C121.088 51.2198 120.002 52.3715 118.594 53.2001C117.194 54.0205 115.528 54.4306 113.597 54.4306ZM113.622 50.329C114.501 50.329 115.234 50.0805 115.822 49.5833C116.41 49.0779 116.854 48.3901 117.152 47.5201C117.459 46.6501 117.612 45.6599 117.612 44.5496C117.612 43.4392 117.459 42.4491 117.152 41.579C116.854 40.709 116.41 40.0213 115.822 39.5158C115.234 39.0104 114.501 38.7577 113.622 38.7577C112.736 38.7577 111.99 39.0104 111.385 39.5158C110.788 40.0213 110.337 40.709 110.03 41.579C109.732 42.4491 109.583 43.4392 109.583 44.5496C109.583 45.6599 109.732 46.6501 110.03 47.5201C110.337 48.3901 110.788 49.0779 111.385 49.5833C111.99 50.0805 112.736 50.329 113.622 50.329ZM133.555 48.6511H138.688C138.713 49.2809 138.995 49.778 139.534 50.1426C140.072 50.5072 140.768 50.6895 141.622 50.6895C142.483 50.6895 143.208 50.4906 143.797 50.0929C144.385 49.6869 144.679 49.1069 144.679 48.3528C144.679 47.8888 144.563 47.487 144.331 47.1472C144.099 46.7992 143.776 46.5258 143.362 46.3269C142.947 46.1281 142.467 46.0286 141.92 46.0286H139.173V42.5609H141.92C142.74 42.5609 143.37 42.3704 143.809 41.9892C144.257 41.608 144.48 41.1316 144.48 40.5599C144.48 39.9136 144.248 39.3957 143.784 39.0062C143.329 38.6085 142.711 38.4097 141.932 38.4097C141.145 38.4097 140.491 38.5878 139.969 38.9441C139.455 39.2921 139.19 39.7478 139.173 40.3113H134.065C134.081 39.1678 134.425 38.1776 135.096 37.3408C135.776 36.5039 136.687 35.8576 137.831 35.4018C138.983 34.9461 140.271 34.7183 141.696 34.7183C143.254 34.7183 144.596 34.9378 145.723 35.377C146.858 35.8079 147.728 36.4252 148.333 37.2289C148.946 38.0326 149.253 38.9897 149.253 40.1C149.253 41.1109 148.922 41.9561 148.259 42.6355C147.596 43.315 146.668 43.7997 145.475 44.0897V44.2886C146.262 44.3383 146.974 44.5496 147.612 44.9224C148.25 45.2953 148.76 45.809 149.141 46.4636C149.522 47.1099 149.713 47.8764 149.713 48.763C149.713 49.9479 149.365 50.9629 148.669 51.8081C147.981 52.6533 147.028 53.3037 145.81 53.7594C144.6 54.2069 143.213 54.4306 141.646 54.4306C140.122 54.4306 138.755 54.211 137.545 53.7719C136.343 53.3244 135.386 52.6698 134.674 51.8081C133.97 50.9464 133.597 49.894 133.555 48.6511ZM158.404 54.4182C157.186 54.4182 156.1 54.2069 155.147 53.7843C154.195 53.3534 153.441 52.7196 152.885 51.8827C152.339 51.0375 152.065 49.9852 152.065 48.7257C152.065 47.6651 152.26 46.7744 152.649 46.0535C153.039 45.3326 153.569 44.7526 154.24 44.3134C154.911 43.8743 155.674 43.5428 156.527 43.3191C157.389 43.0954 158.292 42.9379 159.237 42.8468C160.347 42.7308 161.242 42.6231 161.921 42.5236C162.601 42.4159 163.094 42.2585 163.4 42.0513C163.707 41.8442 163.86 41.5376 163.86 41.1316V41.057C163.86 40.2699 163.612 39.6608 163.114 39.23C162.626 38.7991 161.93 38.5837 161.026 38.5837C160.073 38.5837 159.315 38.795 158.752 39.2175C158.188 39.6318 157.816 40.1539 157.633 40.7836L152.736 40.3859C152.985 39.2258 153.474 38.2232 154.203 37.3781C154.932 36.5246 155.872 35.87 157.024 35.4143C158.184 34.9503 159.527 34.7183 161.051 34.7183C162.112 34.7183 163.127 34.8425 164.096 35.0911C165.074 35.3397 165.94 35.725 166.694 36.247C167.456 36.769 168.057 37.4402 168.496 38.2605C168.935 39.0725 169.155 40.0461 169.155 41.1813V54.0577H164.134V51.4104H163.984C163.678 52.007 163.268 52.5331 162.754 52.9888C162.24 53.4363 161.623 53.7884 160.902 54.0453C160.181 54.2939 159.348 54.4182 158.404 54.4182ZM159.92 50.7641C160.699 50.7641 161.387 50.6108 161.983 50.3042C162.58 49.9893 163.048 49.5667 163.388 49.0364C163.728 48.5061 163.897 47.9054 163.897 47.2342V45.2083C163.732 45.316 163.504 45.4155 163.214 45.5066C162.932 45.5895 162.613 45.6682 162.257 45.7428C161.901 45.809 161.544 45.8712 161.188 45.9292C160.832 45.9789 160.509 46.0245 160.218 46.0659C159.597 46.1571 159.054 46.3021 158.59 46.5009C158.126 46.6998 157.766 46.9691 157.509 47.3088C157.252 47.6402 157.124 48.0545 157.124 48.5517C157.124 49.2726 157.385 49.8236 157.907 50.2048C158.437 50.5776 159.108 50.7641 159.92 50.7641ZM171.771 59.6508V49.8567H173.238C173.66 49.5916 174 49.169 174.257 48.589C174.522 48.009 174.738 47.3254 174.903 46.5382C175.077 45.751 175.21 44.9017 175.301 43.9903C175.4 43.0705 175.487 42.1425 175.562 41.2062L176.059 34.9668H190.701V49.8567H193.659V59.6508H188.612V54.0577H176.942V59.6508H171.771ZM178.508 49.8567H185.704V39.0435H180.559L180.36 41.2062C180.219 43.2445 180.016 44.9763 179.751 46.4015C179.485 47.8184 179.071 48.9701 178.508 49.8567ZM202.188 54.4182C200.97 54.4182 199.885 54.2069 198.932 53.7843C197.979 53.3534 197.225 52.7196 196.67 51.8827C196.123 51.0375 195.849 49.9852 195.849 48.7257C195.849 47.6651 196.044 46.7744 196.433 46.0535C196.823 45.3326 197.353 44.7526 198.024 44.3134C198.696 43.8743 199.458 43.5428 200.311 43.3191C201.173 43.0954 202.076 42.9379 203.021 42.8468C204.131 42.7308 205.026 42.6231 205.705 42.5236C206.385 42.4159 206.878 42.2585 207.184 42.0513C207.491 41.8442 207.644 41.5376 207.644 41.1316V41.057C207.644 40.2699 207.396 39.6608 206.899 39.23C206.41 38.7991 205.714 38.5837 204.811 38.5837C203.858 38.5837 203.1 38.795 202.536 39.2175C201.973 39.6318 201.6 40.1539 201.417 40.7836L196.52 40.3859C196.769 39.2258 197.258 38.2232 197.987 37.3781C198.716 36.5246 199.657 35.87 200.808 35.4143C201.968 34.9503 203.311 34.7183 204.835 34.7183C205.896 34.7183 206.911 34.8425 207.881 35.0911C208.858 35.3397 209.724 35.725 210.478 36.247C211.24 36.769 211.841 37.4402 212.28 38.2605C212.72 39.0725 212.939 40.0461 212.939 41.1813V54.0577H207.918V51.4104H207.769C207.462 52.007 207.052 52.5331 206.538 52.9888C206.024 53.4363 205.407 53.7884 204.686 54.0453C203.965 54.2939 203.133 54.4182 202.188 54.4182ZM203.704 50.7641C204.483 50.7641 205.171 50.6108 205.768 50.3042C206.364 49.9893 206.832 49.5667 207.172 49.0364C207.512 48.5061 207.682 47.9054 207.682 47.2342V45.2083C207.516 45.316 207.288 45.4155 206.998 45.5066C206.716 45.5895 206.397 45.6682 206.041 45.7428C205.685 45.809 205.328 45.8712 204.972 45.9292C204.616 45.9789 204.293 46.0245 204.003 46.0659C203.381 46.1571 202.838 46.3021 202.374 46.5009C201.91 46.6998 201.55 46.9691 201.293 47.3088C201.036 47.6402 200.908 48.0545 200.908 48.5517C200.908 49.2726 201.169 49.8236 201.691 50.2048C202.221 50.5776 202.892 50.7641 203.704 50.7641ZM217.047 54.0577V34.9668H225.188C227.541 34.9668 229.401 35.4143 230.768 36.3092C232.136 37.204 232.819 38.4759 232.819 40.1249C232.819 41.1606 232.434 42.0223 231.663 42.7101C230.893 43.3978 229.824 43.8618 228.457 44.1021C229.6 44.185 230.574 44.446 231.377 44.8852C232.19 45.316 232.807 45.8753 233.229 46.5631C233.66 47.2508 233.876 48.0131 233.876 48.85C233.876 49.9355 233.586 50.8676 233.006 51.6465C232.434 52.4254 231.593 53.022 230.483 53.4363C229.381 53.8506 228.034 54.0577 226.443 54.0577H217.047ZM221.981 50.0929H226.443C227.181 50.0929 227.757 49.9189 228.171 49.5709C228.593 49.2146 228.805 48.7299 228.805 48.1167C228.805 47.4372 228.593 46.9028 228.171 46.5133C227.757 46.1239 227.181 45.9292 226.443 45.9292H221.981V50.0929ZM221.981 42.8219H225.3C225.83 42.8219 226.282 42.7474 226.654 42.5982C227.036 42.4408 227.326 42.2171 227.525 41.9271C227.732 41.637 227.835 41.2932 227.835 40.8955C227.835 40.3071 227.599 39.8473 227.127 39.5158C226.654 39.1844 226.008 39.0187 225.188 39.0187H221.981V42.8219ZM242.657 54.4182C241.439 54.4182 240.353 54.2069 239.4 53.7843C238.448 53.3534 237.693 52.7196 237.138 51.8827C236.591 51.0375 236.318 49.9852 236.318 48.7257C236.318 47.6651 236.513 46.7744 236.902 46.0535C237.292 45.3326 237.822 44.7526 238.493 44.3134C239.164 43.8743 239.927 43.5428 240.78 43.3191C241.642 43.0954 242.545 42.9379 243.49 42.8468C244.6 42.7308 245.495 42.6231 246.174 42.5236C246.854 42.4159 247.347 42.2585 247.653 42.0513C247.96 41.8442 248.113 41.5376 248.113 41.1316V41.057C248.113 40.2699 247.865 39.6608 247.367 39.23C246.879 38.7991 246.182 38.5837 245.279 38.5837C244.326 38.5837 243.568 38.795 243.005 39.2175C242.441 39.6318 242.068 40.1539 241.886 40.7836L236.989 40.3859C237.238 39.2258 237.727 38.2232 238.456 37.3781C239.185 36.5246 240.125 35.87 241.277 35.4143C242.437 34.9503 243.78 34.7183 245.304 34.7183C246.365 34.7183 247.38 34.8425 248.349 35.0911C249.327 35.3397 250.193 35.725 250.947 36.247C251.709 36.769 252.31 37.4402 252.749 38.2605C253.188 39.0725 253.408 40.0461 253.408 41.1813V54.0577H248.387V51.4104H248.237C247.931 52.007 247.521 52.5331 247.007 52.9888C246.493 53.4363 245.876 53.7884 245.155 54.0453C244.434 54.2939 243.601 54.4182 242.657 54.4182ZM244.173 50.7641C244.952 50.7641 245.64 50.6108 246.236 50.3042C246.833 49.9893 247.301 49.5667 247.641 49.0364C247.981 48.5061 248.15 47.9054 248.15 47.2342V45.2083C247.985 45.316 247.757 45.4155 247.467 45.5066C247.185 45.5895 246.866 45.6682 246.51 45.7428C246.153 45.809 245.797 45.8712 245.441 45.9292C245.085 45.9789 244.761 46.0245 244.471 46.0659C243.85 46.1571 243.307 46.3021 242.843 46.5009C242.379 46.6998 242.019 46.9691 241.762 47.3088C241.505 47.6402 241.377 48.0545 241.377 48.5517C241.377 49.2726 241.638 49.8236 242.16 50.2048C242.69 50.5776 243.361 50.7641 244.173 50.7641ZM266.216 54.4306C264.252 54.4306 262.562 54.0329 261.145 53.2374C259.736 52.4337 258.651 51.2985 257.889 49.8319C257.126 48.357 256.745 46.6128 256.745 44.5993C256.745 42.6355 257.126 40.912 257.889 39.4288C258.651 37.9456 259.724 36.7897 261.108 35.9611C262.5 35.1325 264.132 34.7183 266.005 34.7183C267.264 34.7183 268.437 34.9213 269.522 35.3273C270.616 35.725 271.569 36.3257 272.381 37.1295C273.201 37.9332 273.839 38.9441 274.295 40.1621C274.75 41.3719 274.978 42.7888 274.978 44.4129V45.867H258.858V42.5858H269.994C269.994 41.8235 269.829 41.1482 269.497 40.5599C269.166 39.9716 268.706 39.5117 268.118 39.1803C267.538 38.8405 266.862 38.6707 266.092 38.6707C265.288 38.6707 264.575 38.8571 263.954 39.23C263.341 39.5946 262.86 40.0876 262.512 40.709C262.164 41.3222 261.986 42.0058 261.978 42.7598V45.8795C261.978 46.8241 262.152 47.6402 262.5 48.328C262.856 49.0157 263.357 49.546 264.004 49.9189C264.65 50.2918 265.416 50.4782 266.303 50.4782C266.891 50.4782 267.43 50.3953 267.919 50.2296C268.408 50.0639 268.826 49.8153 269.174 49.4839C269.522 49.1524 269.787 48.7464 269.969 48.2658L274.866 48.589C274.618 49.7656 274.108 50.7931 273.338 51.6714C272.575 52.5414 271.589 53.2209 270.38 53.7097C269.178 54.1903 267.79 54.4306 266.216 54.4306ZM289.719 48.2037L294.89 34.9668H298.917L291.472 54.0577H287.954L280.683 34.9668H284.698L289.719 48.2037ZM283.492 34.9668V54.0577H278.434V34.9668H283.492ZM296.207 54.0577V34.9668H301.203V54.0577H296.207ZM308.617 40.8333H314.322C316.85 40.8333 318.822 41.4382 320.238 42.6479C321.655 43.8494 322.364 45.4569 322.364 47.4704C322.364 48.7796 322.045 49.9313 321.407 50.9256C320.769 51.9117 319.849 52.6823 318.648 53.2374C317.446 53.7843 316.004 54.0577 314.322 54.0577H305.299V34.9668H310.357V49.894H314.322C315.209 49.894 315.938 49.6703 316.51 49.2229C317.082 48.7754 317.372 48.2037 317.38 47.5077C317.372 46.7702 317.082 46.1695 316.51 45.7055C315.938 45.2332 315.209 44.997 314.322 44.997H308.617V40.8333ZM324.415 54.0577V34.9668H329.709V54.0577H324.415ZM342.642 54.4306C340.678 54.4306 338.988 54.0329 337.571 53.2374C336.162 52.4337 335.077 51.2985 334.314 49.8319C333.552 48.357 333.171 46.6128 333.171 44.5993C333.171 42.6355 333.552 40.912 334.314 39.4288C335.077 37.9456 336.15 36.7897 337.533 35.9611C338.925 35.1325 340.558 34.7183 342.43 34.7183C343.69 34.7183 344.862 34.9213 345.948 35.3273C347.042 35.725 347.994 36.3257 348.806 37.1295C349.627 37.9332 350.265 38.9441 350.721 40.1621C351.176 41.3719 351.404 42.7888 351.404 44.4129V45.867H335.284V42.5858H346.42C346.42 41.8235 346.254 41.1482 345.923 40.5599C345.592 39.9716 345.132 39.5117 344.543 39.1803C343.963 38.8405 343.288 38.6707 342.517 38.6707C341.714 38.6707 341.001 38.8571 340.38 39.23C339.766 39.5946 339.286 40.0876 338.938 40.709C338.59 41.3222 338.412 42.0058 338.403 42.7598V45.8795C338.403 46.8241 338.577 47.6402 338.925 48.328C339.282 49.0157 339.783 49.546 340.429 49.9189C341.076 50.2918 341.842 50.4782 342.729 50.4782C343.317 50.4782 343.856 50.3953 344.344 50.2296C344.833 50.0639 345.252 49.8153 345.6 49.4839C345.948 49.1524 346.213 48.7464 346.395 48.2658L351.292 48.589C351.044 49.7656 350.534 50.7931 349.764 51.6714C349.001 52.5414 348.015 53.2209 346.805 53.7097C345.604 54.1903 344.216 54.4306 342.642 54.4306ZM362.96 54.0577V34.9668H371.101C373.454 34.9668 375.314 35.4143 376.682 36.3092C378.049 37.204 378.732 38.4759 378.732 40.1249C378.732 41.1606 378.347 42.0223 377.576 42.7101C376.806 43.3978 375.737 43.8618 374.37 44.1021C375.513 44.185 376.487 44.446 377.291 44.8852C378.103 45.316 378.72 45.8753 379.143 46.5631C379.573 47.2508 379.789 48.0131 379.789 48.85C379.789 49.9355 379.499 50.8676 378.919 51.6465C378.347 52.4254 377.506 53.022 376.396 53.4363C375.294 53.8506 373.947 54.0577 372.356 54.0577H362.96ZM367.894 50.0929H372.356C373.094 50.0929 373.67 49.9189 374.084 49.5709C374.506 49.2146 374.718 48.7299 374.718 48.1167C374.718 47.4372 374.506 46.9028 374.084 46.5133C373.67 46.1239 373.094 45.9292 372.356 45.9292H367.894V50.0929ZM367.894 42.8219H371.213C371.743 42.8219 372.195 42.7474 372.568 42.5982C372.949 42.4408 373.239 42.2171 373.438 41.9271C373.645 41.637 373.748 41.2932 373.748 40.8955C373.748 40.3071 373.512 39.8473 373.04 39.5158C372.568 39.1844 371.921 39.0187 371.101 39.0187H367.894V42.8219ZM391.752 54.4306C389.821 54.4306 388.151 54.0205 386.743 53.2001C385.342 52.3715 384.261 51.2198 383.499 49.7449C382.737 48.2617 382.355 46.5424 382.355 44.5869C382.355 42.6148 382.737 40.8913 383.499 39.4164C384.261 37.9332 385.342 36.7815 386.743 35.9611C388.151 35.1325 389.821 34.7183 391.752 34.7183C393.682 34.7183 395.348 35.1325 396.748 35.9611C398.157 36.7815 399.242 37.9332 400.005 39.4164C400.767 40.8913 401.148 42.6148 401.148 44.5869C401.148 46.5424 400.767 48.2617 400.005 49.7449C399.242 51.2198 398.157 52.3715 396.748 53.2001C395.348 54.0205 393.682 54.4306 391.752 54.4306ZM391.777 50.329C392.655 50.329 393.388 50.0805 393.976 49.5833C394.565 49.0779 395.008 48.3901 395.306 47.5201C395.613 46.6501 395.766 45.6599 395.766 44.5496C395.766 43.4392 395.613 42.4491 395.306 41.579C395.008 40.709 394.565 40.0213 393.976 39.5158C393.388 39.0104 392.655 38.7577 391.777 38.7577C390.89 38.7577 390.144 39.0104 389.539 39.5158C388.943 40.0213 388.491 40.709 388.185 41.579C387.886 42.4491 387.737 43.4392 387.737 44.5496C387.737 45.6599 387.886 46.6501 388.185 47.5201C388.491 48.3901 388.943 49.0779 389.539 49.5833C390.144 50.0805 390.89 50.329 391.777 50.329ZM404.591 54.0577V34.9668H421.283V54.0577H416.224V39.1305H409.587V54.0577H404.591ZM425.509 61.2168V34.9668H430.729V38.1735H430.965C431.197 37.6598 431.533 37.1378 431.972 36.6075C432.419 36.0689 432.999 35.6214 433.712 35.2651C434.433 34.9005 435.328 34.7183 436.397 34.7183C437.789 34.7183 439.073 35.0828 440.25 35.812C441.426 36.5329 442.367 37.6225 443.071 39.0808C443.775 40.5309 444.127 42.3496 444.127 44.5371C444.127 46.6666 443.784 48.4647 443.096 49.9313C442.416 51.3897 441.488 52.4958 440.312 53.2499C439.143 53.9956 437.834 54.3685 436.384 54.3685C435.357 54.3685 434.483 54.1986 433.762 53.8589C433.049 53.5192 432.465 53.0924 432.009 52.5787C431.553 52.0567 431.205 51.5305 430.965 51.0002H430.804V61.2168H425.509ZM430.692 44.5123C430.692 45.6475 430.849 46.6376 431.164 47.4828C431.479 48.328 431.935 48.9867 432.531 49.459C433.128 49.923 433.853 50.155 434.706 50.155C435.568 50.155 436.297 49.9189 436.894 49.4466C437.49 48.966 437.942 48.3031 438.249 47.458C438.563 46.6045 438.721 45.6226 438.721 44.5123C438.721 43.4102 438.568 42.4408 438.261 41.6039C437.954 40.767 437.503 40.1124 436.906 39.6401C436.31 39.1678 435.576 38.9317 434.706 38.9317C433.845 38.9317 433.115 39.1595 432.519 39.6153C431.93 40.071 431.479 40.7173 431.164 41.5542C430.849 42.3911 430.692 43.3771 430.692 44.5123ZM456.283 54.4306C454.352 54.4306 452.683 54.0205 451.274 53.2001C449.874 52.3715 448.792 51.2198 448.03 49.7449C447.268 48.2617 446.887 46.5424 446.887 44.5869C446.887 42.6148 447.268 40.8913 448.03 39.4164C448.792 37.9332 449.874 36.7815 451.274 35.9611C452.683 35.1325 454.352 34.7183 456.283 34.7183C458.214 34.7183 459.879 35.1325 461.279 35.9611C462.688 36.7815 463.773 37.9332 464.536 39.4164C465.298 40.8913 465.679 42.6148 465.679 44.5869C465.679 46.5424 465.298 48.2617 464.536 49.7449C463.773 51.2198 462.688 52.3715 461.279 53.2001C459.879 54.0205 458.214 54.4306 456.283 54.4306ZM456.308 50.329C457.186 50.329 457.919 50.0805 458.508 49.5833C459.096 49.0779 459.539 48.3901 459.838 47.5201C460.144 46.6501 460.298 45.6599 460.298 44.5496C460.298 43.4392 460.144 42.4491 459.838 41.579C459.539 40.709 459.096 40.0213 458.508 39.5158C457.919 39.0104 457.186 38.7577 456.308 38.7577C455.421 38.7577 454.675 39.0104 454.071 39.5158C453.474 40.0213 453.022 40.709 452.716 41.579C452.418 42.4491 452.268 43.4392 452.268 44.5496C452.268 45.6599 452.418 46.6501 452.716 47.5201C453.022 48.3901 453.474 49.0779 454.071 49.5833C454.675 50.0805 455.421 50.329 456.308 50.329ZM477.748 54.4306C475.792 54.4306 474.11 54.0163 472.702 53.1877C471.301 52.3508 470.224 51.1908 469.47 49.7076C468.724 48.2244 468.351 46.5175 468.351 44.5869C468.351 42.6314 468.728 40.9162 469.483 39.4413C470.245 37.9581 471.326 36.8022 472.726 35.9736C474.127 35.1367 475.792 34.7183 477.723 34.7183C479.388 34.7183 480.847 35.0207 482.098 35.6256C483.349 36.2304 484.339 37.0798 485.068 38.1735C485.798 39.2673 486.199 40.5516 486.274 42.0265H481.278C481.137 41.0736 480.764 40.3071 480.159 39.7271C479.562 39.1388 478.779 38.8447 477.81 38.8447C476.99 38.8447 476.273 39.0684 475.66 39.5158C475.055 39.955 474.583 40.5972 474.243 41.4423C473.903 42.2875 473.733 43.3108 473.733 44.5123C473.733 45.7303 473.899 46.7661 474.23 47.6195C474.57 48.473 475.047 49.1234 475.66 49.5709C476.273 50.0183 476.99 50.242 477.81 50.242C478.415 50.242 478.958 50.1178 479.438 49.8692C479.927 49.6206 480.329 49.2602 480.644 48.7879C480.967 48.3073 481.178 47.7314 481.278 47.0602H486.274C486.191 48.5186 485.793 49.8029 485.081 50.9132C484.377 52.0152 483.403 52.877 482.16 53.4984C480.917 54.1199 479.446 54.4306 477.748 54.4306ZM492.983 40.8333H498.688C501.215 40.8333 503.187 41.4382 504.604 42.6479C506.021 43.8494 506.729 45.4569 506.729 47.4704C506.729 48.7796 506.41 49.9313 505.772 50.9256C505.134 51.9117 504.214 52.6823 503.013 53.2374C501.811 53.7843 500.37 54.0577 498.688 54.0577H489.664V34.9668H494.723V49.894H498.688C499.574 49.894 500.303 49.6703 500.875 49.2229C501.447 48.7754 501.737 48.2037 501.745 47.5077C501.737 46.7702 501.447 46.1695 500.875 45.7055C500.303 45.2332 499.574 44.997 498.688 44.997H492.983V40.8333ZM508.78 54.0577V34.9668H514.075V54.0577H508.78ZM521.401 54.3809C520.581 54.3809 519.877 54.0909 519.289 53.5109C518.709 52.9226 518.419 52.2183 518.419 51.3979C518.419 50.5859 518.709 49.8899 519.289 49.3099C519.877 48.7299 520.581 48.4398 521.401 48.4398C522.197 48.4398 522.893 48.7299 523.49 49.3099C524.086 49.8899 524.384 50.5859 524.384 51.3979C524.384 51.9448 524.244 52.4461 523.962 52.9018C523.688 53.3493 523.328 53.7097 522.881 53.9832C522.433 54.2483 521.94 54.3809 521.401 54.3809ZM521.401 41.0073C520.581 41.0073 519.877 40.7173 519.289 40.1373C518.709 39.5573 518.419 38.853 518.419 38.0244C518.419 37.2123 518.709 36.5205 519.289 35.9487C519.877 35.3687 520.581 35.0787 521.401 35.0787C522.197 35.0787 522.893 35.3687 523.49 35.9487C524.086 36.5205 524.384 37.2123 524.384 38.0244C524.384 38.5795 524.244 39.085 523.962 39.5407C523.688 39.9881 523.328 40.3444 522.881 40.6096C522.433 40.8747 521.94 41.0073 521.401 41.0073Z" fill="white"/>
</svg>
