<svg width="20" height="21" viewBox="0 0 20 21" fill="none" xmlns="http://www.w3.org/2000/svg">
<path d="M10 0.0140381C4.48578 0.0140381 0 4.49982 0 10.014C0 15.5283 4.48578 20.014 10 20.014C15.5142 20.014 20 15.5283 20 10.014C20 4.49982 15.5142 0.0140381 10 0.0140381Z" fill="url(#paint0_linear_2_856)"/>
<path d="M10.7802 11.6452C10.7755 11.7024 10.7613 11.7539 10.7377 11.7996C10.7141 11.8453 10.6715 11.8854 10.61 11.9197C10.5533 11.9483 10.4729 11.9711 10.3689 11.9883C10.2696 12.0055 10.1467 12.014 10.0001 12.014C9.84881 12.014 9.72351 12.0055 9.62422 11.9883C9.52493 11.9711 9.44455 11.9483 9.38309 11.9197C9.32635 11.8854 9.28616 11.8453 9.26252 11.7996C9.23888 11.7539 9.22469 11.7024 9.21997 11.6452L8.4292 4.51725C8.4292 4.44292 8.44338 4.37715 8.47175 4.31997C8.50012 4.26279 8.54977 4.21704 8.62069 4.18273C8.69634 4.1427 8.79563 4.11411 8.91856 4.09695C9.04622 4.0798 9.81098 4.01404 10.0001 4.01404C10.1892 4.01404 11.1573 4.0655 11.2803 4.08838C11.4032 4.10553 11.5001 4.13412 11.571 4.17415C11.6467 4.20846 11.6987 4.25421 11.7271 4.31139C11.7602 4.36286 11.7767 4.42576 11.7767 4.5001L10.7802 11.6452ZM11.0001 14.7617C11.0001 14.9962 10.9836 15.1935 10.9505 15.3536C10.9221 15.5137 10.8677 15.6423 10.7873 15.7396C10.7117 15.8368 10.61 15.9054 10.4824 15.9454C10.3547 15.9912 10.194 16.014 10.0001 16.014C9.80625 16.014 9.64313 15.9912 9.51075 15.9454C9.38309 15.9054 9.28143 15.8368 9.20578 15.7396C9.13013 15.6423 9.07576 15.5137 9.04266 15.3536C9.01429 15.1935 9.00011 14.9962 9.00011 14.7617C9.00011 14.5215 9.01429 14.3214 9.04266 14.1613C9.07576 13.9955 9.13013 13.8639 9.20578 13.7667C9.28143 13.6638 9.38309 13.5923 9.51075 13.5523C9.64313 13.5065 9.80625 13.4837 10.0001 13.4837C10.194 13.4837 10.3547 13.5065 10.4824 13.5523C10.61 13.5923 10.7117 13.6638 10.7873 13.7667C10.8677 13.8639 10.9221 13.9955 10.9505 14.1613C10.9836 14.3214 11.0001 14.5215 11.0001 14.7617Z" fill="#AD0F5B"/>
<defs>
<linearGradient id="paint0_linear_2_856" x1="2.64706" y1="0.0140396" x2="21.9164" y2="4.13904" gradientUnits="userSpaceOnUse">
<stop stop-color="#FECC00"/>
<stop offset="1" stop-color="#FEA800"/>
</linearGradient>
</defs>
</svg>
