<svg width="27" height="30" viewBox="0 0 27 30" fill="none" xmlns="http://www.w3.org/2000/svg">
<path fill-rule="evenodd" clip-rule="evenodd" d="M18.4 13.5427C18.4 10.5917 16.8329 8.54349 14.8054 7.92877C14.7319 7.73154 14.6159 7.54818 14.4583 7.39433C13.9194 6.86856 13.0798 6.86856 12.541 7.39433C12.3836 7.54791 12.2677 7.73088 12.1943 7.92771C10.1645 8.54004 8.59997 10.5836 8.59997 13.5427C8.59997 15.4575 8.22826 16.5304 7.54014 17.3079C7.4251 17.4379 7.11342 17.7357 6.90227 17.9374L6.90223 17.9374L6.90222 17.9374C6.80233 18.0329 6.72494 18.1068 6.70154 18.1313L6.49997 18.3436V20.8226H10.7618C10.9059 21.5947 11.3092 22.1112 12.0387 22.5736C12.9361 23.1423 14.0643 23.1423 14.9617 22.5736C15.6054 22.1656 16.0371 21.5385 16.2122 20.8226H20.5V18.3436L20.2984 18.1313C20.2772 18.109 20.2032 18.038 20.1064 17.9453L20.106 17.945L20.1059 17.9448L20.1058 17.9448L20.1058 17.9447C19.8952 17.743 19.5775 17.4387 19.4607 17.3062C18.7722 16.525 18.4 15.4507 18.4 13.5427ZM14.7159 20.8226H12.2252C12.3241 21.0137 12.4927 21.158 12.768 21.3325C13.2176 21.6174 13.7828 21.6174 14.2324 21.3325C14.4406 21.2005 14.6033 21.0259 14.7159 20.8226ZM18.4285 18.2879C18.5758 18.455 18.8915 18.7605 19.1004 18.96V19.3687H7.90039V18.9603C8.10764 18.7631 8.42429 18.4579 8.57133 18.2918C9.50634 17.2353 10.0004 15.8093 10.0004 13.5427C10.0004 10.7947 11.6333 9.18994 13.5004 9.18994C15.3622 9.18994 17.0004 10.803 17.0004 13.5427C17.0004 15.802 17.4946 17.2284 18.4285 18.2879Z" fill="white"/>
<circle cx="22.5" cy="4" r="4" fill="#FECC00"/>
</svg>
