<svg width="267" height="168" viewBox="0 0 267 168" fill="none" xmlns="http://www.w3.org/2000/svg">
<path d="M38.223 154.42C37.5387 154.35 36.8913 154.284 36.2601 154.155C33.741 153.69 31.2644 153.003 28.8583 152.103C24.3252 150.463 19.7849 148.725 15.3987 147.046L14.9469 146.87C10.3793 145.145 6.60185 141.747 4.36537 137.354L4.15653 136.956C2.63751 134.038 0.343388 129.626 0.760927 123.873C0.94217 121.365 1.33592 118.975 1.6777 116.87L1.73351 116.543C2.52051 111.709 3.35051 106.81 4.15527 102.076L4.54956 99.7395C5.30472 95.2433 6.07023 90.75 6.84612 86.2595L7.80679 80.6105C7.9174 79.9659 8.02848 79.316 8.14483 78.6666C8.38993 77.2885 8.61785 75.9838 8.80559 74.7127C9.29953 71.3257 10.559 68.1079 12.486 65.3095C12.4217 65.018 12.3583 64.7158 12.3007 64.4089C11.4523 59.609 12.2676 54.6771 14.608 50.4515C15.1051 49.5238 15.6246 48.6414 16.1346 47.8064C15.1096 43.3758 15.0983 38.7767 16.1016 34.3626C17.3401 28.5753 19.3432 24.1619 22.4122 20.4218C26.5298 15.4071 31.0917 11.8411 36.3559 9.51343C42.0458 6.99809 48.282 5.86112 55.4262 6.0373C56.5712 6.06289 57.7067 6.13589 58.8068 6.24829C61.2303 6.49052 63.6281 6.96591 65.9675 7.66804C69.5009 6.32792 73.2754 5.73838 77.0584 5.93572L77.9962 5.96164C79.0933 5.98772 80.3393 6.01285 81.6973 6.1516L82.3605 6.21936C84.2719 6.46375 86.1307 7.04109 87.8544 7.9258C91.0685 6.15537 94.6646 5.20054 98.338 5.1422L100.205 5.1072L103.058 5.04914C103.94 5.02726 104.824 5.06012 105.705 5.14754C106.876 5.26511 108.037 5.48803 109.172 5.81364C113.145 4.49922 116.894 4.45214 119.653 4.42757C121.498 4.4064 123.346 4.34793 125.301 4.28424C128.567 4.1717 131.94 4.05927 135.405 4.14993C136.02 4.16436 136.649 4.20171 137.28 4.26624C139.898 4.56944 142.484 5.11988 145.005 5.91033L145.419 6.03328C145.704 6.11614 145.978 6.20322 146.246 6.29512C149.987 4.20934 154.193 3.11067 158.482 3.09919C163.119 3.03536 167.896 2.83527 172.507 2.65048L178.726 2.41499L179.979 2.37088C181.62 2.30743 183.261 2.24928 184.901 2.21247C185.702 2.1957 186.505 2.22744 187.304 2.30746C188.523 2.4355 189.73 2.67035 190.911 3.00938C194.624 1.81353 198.148 1.72735 200.954 1.65381L201.444 1.63935C203.307 1.59316 205.173 1.51498 207.109 1.42783C210.872 1.27474 214.76 1.10206 218.734 1.15324C219.747 1.17071 220.804 1.23031 221.867 1.33894C224.618 1.65371 227.345 2.17307 230.025 2.89284C237.698 4.87574 244.228 9.25786 249.441 15.9085C253.254 20.798 255.027 26.0488 256.502 31.0112C256.809 32.0498 257.111 33.086 257.409 34.1199C258.104 36.5081 258.758 38.7631 259.454 40.9685C260.821 45.1725 260.703 49.0529 260.604 51.8921C260.577 52.1905 260.582 52.492 260.577 52.7925C260.44 57.9165 259.047 62.9122 256.523 67.3296C258.214 72.5439 257.972 78.1846 255.842 83.1896C259.131 89.2406 261.849 96.1686 264.222 104.518C265.586 109.177 266.053 114.049 265.598 118.868C265.541 119.502 265.485 120.136 265.428 120.775C265.218 123.49 264.958 126.872 263.734 130.419C261.584 136.651 259.152 141.531 256.097 145.768C253.829 148.897 251.228 151.763 248.34 154.313C246.696 155.707 244.936 156.954 243.078 158.039C242.517 158.38 241.994 158.703 241.548 159.001C235.183 163.243 228.395 164.856 223.842 165.697C219.578 166.563 215.211 166.84 210.862 166.521L208.661 166.297C205.693 165.993 203.205 165.653 200.843 165.224C198.978 164.852 197.152 164.291 195.394 163.549C195.025 163.403 194.66 163.259 194.295 163.13L193.589 162.88C190.345 161.732 186.308 160.309 182.517 157.373C180.858 156.091 179.253 154.787 177.698 153.521L176.479 152.536C174.067 155.786 170.872 158.351 167.195 159.992C163.518 161.633 159.479 162.294 155.459 161.915C152.859 161.649 150.578 161.502 148.492 161.418C147.963 161.396 147.435 161.358 146.946 161.308C143.742 161.018 140.631 160.025 137.831 158.399C136.699 157.745 135.562 157.092 134.428 156.411C132.085 155.048 129.681 153.652 127.281 152.16C122.273 155.305 116.721 157.473 110.909 158.551C108.059 159.057 105.162 159.269 102.264 159.184C101.403 159.182 100.591 159.18 99.8504 159.206C98.4377 159.251 97.0226 159.202 95.6144 159.058C89.6297 158.447 84.5293 156.259 80.0324 154.332L78.498 153.67C75.8464 155.167 72.8896 156.035 69.8473 156.211C67.8468 156.297 65.841 156.231 63.8471 156.012C63.3208 155.958 62.7944 155.904 62.2648 155.888L48.2689 154.995L43.2031 154.682C42.7083 154.631 42.2088 154.634 41.7165 154.616C40.6456 154.593 39.481 154.549 38.223 154.42Z" stroke="white" stroke-opacity="0.6" stroke-miterlimit="10"/>
</svg>
