<svg width="299" height="200" viewBox="0 0 299 200" fill="none" xmlns="http://www.w3.org/2000/svg">
<path d="M52.7972 186.403C51.7445 186.296 50.7367 186.161 49.7328 185.983C46.305 185.353 42.9349 184.422 39.6607 183.201C34.9988 181.515 30.4073 179.756 25.9555 178.037L25.4932 177.861C17.2302 174.746 10.3942 168.606 6.34421 160.663L6.14972 160.283C4.22256 156.581 0.200565 148.853 0.949262 138.494C1.18461 135.26 1.66036 132.368 2.03741 130.047L2.06782 129.706C2.86342 124.835 3.70014 119.921 4.50155 115.164L4.90202 112.818C5.65337 108.365 6.40488 103.909 7.15655 99.4523L8.14442 93.677C8.24549 93.0798 8.35181 92.4832 8.45336 91.8807L8.47379 91.6516C8.71124 90.2996 8.90721 89.1745 9.0573 88.1468C9.58361 84.5879 10.6076 81.1283 12.0984 77.8718C11.8891 71.9113 13.1012 66.0028 15.6319 60.6473C15.2671 55.9765 15.5908 51.2839 16.5924 46.7243C18.3581 38.4803 21.4909 31.7038 26.1683 26.0098C31.876 19.0663 38.3194 14.0581 45.873 10.7171C53.7082 7.25433 62.1342 5.68517 71.621 5.9179C73.1689 5.9524 74.7163 6.05138 76.2164 6.20465C77.9428 6.38104 79.6499 6.63606 81.3375 6.96977C85.2936 6.06502 89.3556 5.69374 93.4187 5.86549L94.1819 5.88433C95.4436 5.9111 97.1609 5.95215 99.1558 6.15596L100.208 6.26352C101.222 6.39395 102.221 6.57124 103.216 6.79116C106.672 5.71898 110.263 5.13786 113.886 5.06429L115.775 5.02611L118.531 4.97437C120.087 4.93249 121.645 4.98929 123.196 5.14447C123.68 5.19395 124.169 5.24396 124.651 5.3254C128.177 4.64195 131.764 4.31339 135.361 4.3445C137.036 4.32743 138.799 4.26568 140.685 4.20565C144.009 4.0937 147.77 3.97259 151.703 4.06794C152.72 4.09661 153.75 4.15884 154.777 4.26371C156.834 4.48155 158.877 4.8339 160.892 5.31857C165.124 3.86978 169.562 3.10592 174.043 3.05485C178.491 2.97167 183.16 2.79277 187.674 2.61428L193.995 2.37305L195.237 2.32786C196.942 2.27086 198.652 2.20906 200.361 2.16858C201.814 2.13404 203.269 2.1911 204.717 2.33946C205.286 2.39754 205.854 2.45562 206.419 2.55633C209.7 1.9472 213.03 1.63085 216.372 1.61092L216.856 1.59592C218.603 1.54855 220.378 1.47193 222.26 1.39538C226.254 1.22279 230.36 1.0455 234.768 1.1088C236.238 1.12457 237.759 1.21552 239.28 1.37094C242.823 1.76338 246.335 2.42406 249.786 3.34745C260.932 6.22821 270.357 12.5136 277.806 22.0163C283.137 28.8243 285.698 35.9082 287.66 42.5494C287.979 43.6143 288.288 44.6834 288.596 45.7472C289.256 48.0026 289.873 50.1355 290.511 52.0931C292.767 59.0116 292.578 65.0029 292.466 68.5827L292.446 69.3979C292.306 74.9168 291.197 80.3559 289.17 85.4605C289.726 89.5796 289.613 93.7559 288.838 97.824C291.504 103.79 293.721 109.947 295.47 116.243C297.396 122.887 298.039 129.831 297.364 136.694C297.322 137.168 297.28 137.637 297.238 138.106L297.229 138.212C296.976 141.466 296.596 146.379 294.697 151.883C292.016 159.674 288.905 165.845 284.907 171.367C281.959 175.44 278.575 179.168 274.817 182.486C272.504 184.479 270.021 186.26 267.395 187.808C267.001 188.047 266.652 188.27 266.354 188.454C257.606 194.291 248.743 196.418 242.84 197.514C237.178 198.646 231.383 198.996 225.612 198.555C224.822 198.474 224.028 198.393 223.227 198.311C219.843 197.965 216.978 197.57 214.197 197.066C211.322 196.514 208.506 195.671 205.791 194.551L205.662 194.5C205.503 194.436 205.35 194.372 205.185 194.317L204.49 194.069C200.544 192.776 196.739 191.07 193.136 188.979C186.15 192.956 178.117 194.684 170.094 193.936C167.783 193.7 165.787 193.571 163.988 193.495C163.167 193.465 162.317 193.405 161.486 193.32C156.011 192.783 150.705 191.047 145.936 188.231L142.908 186.454C138.789 188.174 134.506 189.469 130.123 190.32C126.268 191.042 122.345 191.362 118.417 191.274C117.7 191.271 117.025 191.272 116.556 191.289C114.437 191.358 112.314 191.285 110.202 191.069C104.815 190.455 99.5304 189.092 94.496 187.019C92.0329 187.703 89.5031 188.124 86.9479 188.274C84.1861 188.41 81.4159 188.334 78.6611 188.046L78.5505 188.035C78.1821 187.997 77.8084 187.959 77.4452 187.922L63.4388 187.028L58.3783 186.715C58.0572 186.683 57.7491 186.683 57.4366 186.673L57.2787 186.657C56.1275 186.641 54.5605 186.583 52.7972 186.403Z" stroke="white" stroke-opacity="0.4" stroke-miterlimit="10"/>
</svg>
