<svg width="361" height="338" viewBox="0 0 361 338" fill="none" xmlns="http://www.w3.org/2000/svg">
<path d="M73.6198 324.663C70.9354 324.388 68.3644 324.034 65.7492 323.579C58.3937 322.268 51.1589 320.308 44.1283 317.719C38.8902 315.824 33.9957 313.948 29.2601 312.136L28.8184 311.967C4.57283 302.839 -15.4947 284.844 -27.4005 261.553L-27.5677 261.224C-31.3267 254.001 -42.7665 232.016 -40.5712 201.687C-40.1062 195.283 -39.219 189.863 -38.7261 186.957L-38.6923 186.578C-37.8672 181.555 -37.021 176.534 -36.2033 171.715L-35.8005 169.342C-35.0491 164.908 -34.2896 160.443 -33.5459 155.976L-32.5547 150.164C-32.4441 149.519 -32.3154 148.79 -32.1909 148.05C-32.1909 148.05 -32.1686 147.8 -32.1662 147.773C-32.0575 147.15 -31.9541 146.585 -31.8835 146.152C-31.1996 141.53 -30.2225 136.961 -28.9584 132.472C-28.3495 127.167 -27.3488 121.919 -25.9646 116.773C-25.5586 111.22 -24.7687 105.707 -23.6005 100.274C-19.5169 81.2289 -11.5333 64.3731 0.115976 50.1874C12.5461 35.0493 27.5765 23.5101 44.7954 15.8986C62.0144 8.2872 79.8253 4.87592 99.4985 5.3591C101.947 5.41576 104.411 5.54915 106.847 5.74965C111.754 5.2777 116.69 5.11759 121.624 5.27023L121.924 5.30088C122.91 5.321 124.447 5.35441 126.366 5.45373C130.443 4.8953 134.551 4.57185 138.669 4.48497L141.037 4.44192C141.696 4.42869 142.35 4.42026 143 4.40062C144.81 4.35438 146.627 4.35716 148.432 4.418C154.018 3.84891 158.463 3.79768 160.839 3.77168C161.759 3.76349 163.139 3.71632 164.604 3.66709C168.436 3.52099 173.661 3.36128 179.59 3.51553C181.122 3.55374 182.661 3.62499 184.192 3.72767C189.126 2.98434 194.107 2.57008 199.101 2.48752C202.788 2.42333 207.046 2.25632 211.171 2.10783C213.399 2.01829 215.589 1.93564 217.779 1.85832L218.983 1.8147C220.716 1.74974 222.826 1.66968 224.992 1.62217C226.849 1.58077 228.713 1.58839 230.603 1.65784C235.077 1.22249 238.665 1.13211 240.82 1.08885L241.246 1.07326C242.444 1.04509 243.953 0.97885 245.542 0.910019C250.005 0.720822 255.55 0.480971 261.868 0.56739C265.332 0.614883 268.868 0.820146 272.368 1.17777C279.337 1.91092 286.246 3.18121 293.036 4.97756C318.87 11.6599 341.456 26.5908 358.35 48.1604C371.088 64.413 376.803 80.2492 380.356 92.2247C380.707 93.4111 381.057 94.6081 381.407 95.8051L381.401 95.8744C381.839 97.3869 382.339 99.11 382.631 99.9409C386.852 113.056 388.685 126.816 388.039 140.546L388.021 141.168C387.856 147.242 387.222 153.289 386.126 159.253C386.899 161.66 387.646 164.123 388.37 166.67C392.71 181.769 394.168 197.539 392.666 213.129C392.661 213.188 392.639 213.433 392.639 213.433C391.955 224.04 389.89 234.495 386.498 244.525C381.599 258.713 375.344 270.965 367.366 281.983C361.463 290.13 354.694 297.59 347.179 304.232C341.974 308.783 336.385 312.863 330.475 316.428C309.528 330.099 289.433 333.815 282.779 335.049C270.299 337.354 258.65 337.96 247.167 336.943C246.114 336.835 245.047 336.726 243.966 336.616C238.782 336.086 234.249 335.456 229.692 334.619C225.51 333.858 221.373 332.845 217.305 331.585C208.68 332.883 199.92 333.111 191.218 332.264C189.913 332.13 189.193 332.1 188.866 332.083C186.669 331.998 184.426 331.839 182.199 331.611C176.603 331.041 171.055 330.03 165.605 328.588C159.089 329.531 152.507 329.968 145.916 329.893L145.679 329.869C140.743 330.002 135.801 329.816 130.882 329.314C125.94 328.805 121.03 327.988 116.181 326.866C110.902 327.049 105.613 326.889 100.347 326.388L100.247 326.378L82.315 325.255C80.892 325.191 77.6149 325.071 73.6198 324.663Z" stroke="white" stroke-opacity="0.2" stroke-miterlimit="10"/>
</svg>
