<svg width="361" height="454" viewBox="0 0 361 454" fill="none" xmlns="http://www.w3.org/2000/svg">
<path d="M67.4418 439.922C63.1362 439.482 58.9908 438.913 54.7702 438.175C43.4785 436.181 32.3706 433.19 21.574 429.236C15.7856 427.139 10.3929 425.072 5.64249 423.248L5.12897 423.05C-35.0454 407.822 -68.3105 377.991 -88.1378 339.41L-88.2878 339.126C-93.9361 328.46 -98.5331 317.265 -102.011 305.703C-108.238 285.01 -110.629 263.366 -109.065 241.872C-108.371 232.303 -107.102 224.573 -106.495 220.861L-106.434 220.474C-105.573 215.224 -104.673 209.902 -103.879 205.231L-103.476 202.853C-102.724 198.413 -101.962 193.921 -101.216 189.428L-100.227 183.642C-100.1 182.87 -99.9485 182.004 -99.7964 181.132L-99.639 180.261C-98.8089 174.825 -97.7198 169.404 -96.3939 164.066C-95.7101 159.438 -94.8364 154.823 -93.7865 150.258C-93.0776 143.706 -92.0292 137.201 -90.6458 130.768C-84.2239 100.812 -71.4865 74.071 -52.7936 51.3042C-33.5642 27.8825 -10.1304 9.96551 16.8601 -1.97535C42.937 -13.4988 71.0822 -18.9724 100.518 -18.2552C102.268 -18.2162 104.03 -18.149 105.812 -18.0531C111.458 -18.4063 117.155 -18.507 122.834 -18.3354L123.018 -18.3165C127.552 -18.7673 132.112 -19.0379 136.641 -19.1343L139.301 -19.1904C139.743 -19.1991 140.179 -19.2029 140.616 -19.2174L140.668 -19.212C142.175 -19.2463 143.685 -19.2694 145.2 -19.2866C151.742 -19.801 156.879 -19.8622 159.372 -19.887C160 -19.8982 160.826 -19.932 161.7 -19.961C166.111 -20.1071 172.759 -20.331 180.65 -20.1323L180.756 -20.1215C186.253 -20.7211 191.803 -21.068 197.314 -21.1609C200.224 -21.2077 204.078 -21.3623 207.803 -21.5085C210.154 -21.6016 212.441 -21.6959 214.732 -21.7737L215.904 -21.8152C217.695 -21.8796 220.167 -21.971 222.786 -22.0314C224.415 -22.0693 226.063 -22.0837 227.708 -22.0662C232.52 -22.4239 236.326 -22.5189 238.404 -22.5862L238.776 -22.5965C239.665 -22.6186 240.796 -22.6697 241.974 -22.7214C247.023 -22.9367 253.902 -23.2339 262.13 -23.119C267.583 -23.0457 273.132 -22.7261 278.611 -22.1662C289.007 -21.0812 299.315 -19.2014 309.448 -16.5427C350.129 -6.01539 385.61 17.3887 412.056 51.1489C432.386 77.0855 441.283 102.15 446.203 118.749C446.587 120.042 446.967 121.336 447.344 122.629L447.393 122.79C447.616 123.565 447.86 124.407 448.052 125.045C454.748 145.812 457.71 167.591 456.797 189.34L456.784 189.838C456.685 193.373 456.486 196.908 456.189 200.444C461.541 221.816 463.238 243.923 461.205 265.799C460.053 282.264 456.779 298.483 451.468 314.044C444.308 334.764 435.01 352.899 422.999 369.478C414.144 381.701 403.988 392.893 392.71 402.855C384.813 409.8 376.341 416.048 367.387 421.531C345.632 435.499 321.344 444.99 295.893 449.467C277.283 452.91 259.615 453.825 241.896 452.214C240.569 452.078 239.227 451.941 237.88 451.803C230.9 451.09 224.694 450.225 218.354 449.072C216.546 448.742 214.729 448.384 212.917 447.979C203.894 448.523 194.836 448.368 185.822 447.517C182.611 447.366 179.361 447.125 176.139 446.796C171.655 446.338 167.188 445.703 162.738 444.89C155.873 445.398 150.475 445.421 147.288 445.418C139.791 445.574 132.287 445.271 124.816 444.51C120.079 444.026 115.269 443.346 110.492 442.476C104.03 442.396 98.9615 441.992 96.0359 441.741L79.7777 440.725C77.3433 440.686 72.8895 440.478 67.4418 439.922Z" stroke="white" stroke-opacity="0.1" stroke-miterlimit="10"/>
</svg>
