<svg width="231" height="93" viewBox="0 0 231 93" fill="none" xmlns="http://www.w3.org/2000/svg">
<path d="M37.7822 87.8262L11.1776 71.1618C7.80113 69.0468 5.61865 65.4645 5.28779 61.4941L5.11082 59.3705C5.71214 60.7342 8.27257 64.4895 11.083 65.694C13.5421 66.7479 23.9031 68.1438 25.4865 67.8018C24.0813 68.1053 24.2567 70.1333 24.7839 70.9636C28.2749 76.4613 32.3977 80.3355 37.7822 87.8262Z" fill="white"/>
<path d="M11.4961 32.4541C11.9629 28.8795 14.947 26.1536 18.5417 26.0181L216.786 18.5448C220.507 18.4046 223.723 21.0784 224.265 24.7632L229.302 58.9942C229.957 63.4438 226.492 67.458 221.997 67.458L15.2215 67.458C10.8146 67.458 7.43012 63.5923 8.0021 59.212L11.4961 32.4541Z" fill="white" stroke="white" stroke-width="0.781312"/>
<path d="M9.04432 29.6454C9.44207 26.384 12.1577 23.8866 15.4343 23.769L214.764 16.6127C218.158 16.4908 221.078 18.9564 221.528 22.3242L226.236 57.6077C226.77 61.6036 223.647 65.173 219.618 65.173L12.1492 65.173C8.18687 65.173 5.1332 61.7151 5.61401 57.7726L9.04432 29.6454Z" fill="#BF1A69" stroke="white" stroke-width="0.781312"/>
</svg>
