<svg width="51" height="26" viewBox="0 0 51 26" fill="none" xmlns="http://www.w3.org/2000/svg">
<g clip-path="url(#clip0_410_77)">
<path fill-rule="evenodd" clip-rule="evenodd" d="M19.2844 7.655C20.4558 7.655 21.279 7.06449 21.279 6.01127V5.99673C21.279 5.07306 20.6576 4.68703 19.5558 4.4072C18.617 4.17232 18.3839 4.05818 18.3839 3.71093V3.69506C18.3839 3.43771 18.625 3.23279 19.0821 3.23279C19.4549 3.23279 19.8277 3.36191 20.2232 3.58886C20.3161 3.64174 20.4094 3.67259 20.5259 3.67259C20.8362 3.67259 21.0844 3.43771 21.0844 3.13496C21.0844 2.90757 20.9531 2.74893 20.821 2.67269C20.3321 2.37039 19.758 2.20337 19.0978 2.20337C17.9884 2.20337 17.1964 2.83971 17.1964 3.80127V3.81625C17.1964 4.86903 17.9027 5.16384 18.9973 5.43662C19.9054 5.66357 20.0915 5.81517 20.0915 6.10998V6.12584C20.0915 6.43564 19.796 6.62469 19.3071 6.62469C18.7795 6.62469 18.3295 6.44401 17.9183 6.14788C17.8185 6.0781 17.6991 6.04109 17.5768 6.04212C17.2661 6.04212 17.0179 6.277 17.0179 6.57974C17.0179 6.7613 17.1112 6.92788 17.2429 7.01866C17.8404 7.43393 18.5536 7.65624 19.2844 7.655ZM30.7232 4.50547H30.3937C30.3279 4.50588 30.2625 4.49345 30.2015 4.46889C30.1405 4.44433 30.085 4.40814 30.0382 4.36237C29.9914 4.3166 29.9541 4.26217 29.9287 4.20218C29.9032 4.14219 29.89 4.07784 29.8897 4.01279C29.89 3.94779 29.9033 3.88349 29.9289 3.82357C29.9544 3.76366 29.9917 3.70931 30.0385 3.66365C30.0854 3.618 30.141 3.58193 30.202 3.55753C30.263 3.53312 30.3283 3.52086 30.3942 3.52144H30.7232V3.01378C30.7232 2.69605 30.9871 2.43825 31.3134 2.43825C31.6393 2.43825 31.9027 2.69605 31.9027 3.01378V3.52144H32.571C32.6368 3.52086 32.7021 3.53312 32.7632 3.55753C32.8242 3.58193 32.8798 3.618 32.9266 3.66365C32.9735 3.70931 33.0108 3.76366 33.0363 3.82357C33.0619 3.88349 33.0752 3.94779 33.0754 4.01279C33.0753 4.07791 33.0622 4.14235 33.0367 4.20242C33.0112 4.26249 32.974 4.31699 32.9271 4.36279C32.8802 4.40858 32.8246 4.44477 32.7635 4.46926C32.7024 4.49374 32.6369 4.50605 32.571 4.50547H31.9031V6.2391C31.9031 6.50395 32.0196 6.63306 32.283 6.63306C32.3219 6.63306 32.4 6.62469 32.4228 6.62469C32.6875 6.62469 32.9116 6.8371 32.9116 7.10239C32.9116 7.30642 32.7728 7.47344 32.6094 7.53381C32.3924 7.6171 32.1897 7.64662 31.9344 7.64662C31.2125 7.64662 30.7232 7.36767 30.7232 6.42815V4.50547ZM34.6429 8.81354C35.3491 8.81354 35.6982 8.50286 36.0478 7.67747L37.4987 4.27808C37.5228 4.2252 37.5531 4.09652 37.5531 4.00574C37.5531 3.70256 37.2973 3.47561 36.9951 3.47561C36.6915 3.47561 36.5219 3.67259 36.4281 3.91452L35.5585 6.26951L34.6589 3.90747C34.5571 3.63425 34.3871 3.47561 34.092 3.47561C33.7661 3.47561 33.5094 3.70256 33.5094 4.02778C33.5094 4.10357 33.5406 4.21771 33.5719 4.29306L34.9924 7.50296L34.9536 7.59374C34.8451 7.79866 34.7437 7.837 34.5344 7.837C34.4487 7.837 34.3871 7.82113 34.2862 7.79117C34.224 7.7696 34.1583 7.7593 34.0924 7.76076C33.8513 7.76076 33.6263 7.95025 33.6263 8.23008C33.6263 8.51035 33.8281 8.64652 33.9991 8.7069C34.1933 8.7752 34.3795 8.81354 34.6429 8.81354ZM27.5429 4.50547H27.1879C26.9085 4.50547 26.6835 4.28513 26.6835 4.01279C26.6838 3.94779 26.6971 3.88349 26.7226 3.82357C26.7481 3.76366 26.7854 3.70931 26.8323 3.66365C26.8792 3.618 26.9347 3.58193 26.9957 3.55753C27.0568 3.53312 27.1221 3.52086 27.1879 3.52144H27.5429V3.01378C27.5429 2.69605 27.8071 2.43825 28.133 2.43825C28.4589 2.43825 28.7228 2.69605 28.7228 3.01378V3.52144H29.2429C29.5223 3.52144 29.7473 3.74045 29.7473 4.01279C29.7473 4.28557 29.5223 4.50547 29.2429 4.50547H28.7232V6.2391C28.7232 6.50395 28.8402 6.63306 29.1036 6.63306C29.1429 6.63306 29.2205 6.62469 29.2433 6.62469C29.5076 6.62469 29.733 6.8371 29.733 7.10239C29.733 7.30642 29.5933 7.47344 29.4295 7.53381C29.2129 7.6171 29.0107 7.64662 28.7545 7.64662C28.033 7.64662 27.5433 7.36767 27.5433 6.42815V4.50547H27.5429ZM25.1562 4.05113C24.8768 3.72503 24.4888 3.4452 23.8603 3.4452C22.8746 3.4452 21.9665 4.1873 21.9665 5.54239V5.55737C21.9665 6.91334 22.8906 7.655 23.8603 7.655C24.4737 7.655 24.8692 7.37517 25.1562 6.99574V7.04951C25.1562 7.36767 25.4205 7.62459 25.7469 7.62459C26.0728 7.62459 26.3362 7.36767 26.3362 7.04951V4.05113C26.3362 3.73296 26.0728 3.47561 25.7469 3.47561C25.421 3.47561 25.1562 3.73296 25.1562 4.04364V4.05113ZM24.1629 4.42174C24.7138 4.42174 25.1719 4.86903 25.1719 5.54239V5.55737C25.1719 6.23161 24.7138 6.67845 24.1629 6.67845C23.6121 6.67845 23.1464 6.23161 23.1464 5.55737V5.54239C23.1464 4.86066 23.6121 4.42174 24.1629 4.42174ZM44.2621 14.2255H46.8973C47.1589 14.2255 47.375 14.0268 47.375 13.7769C47.375 13.5266 47.1589 13.3212 46.8973 13.3212H45.1871L47.1129 11.2985C47.2978 11.1077 47.375 10.968 47.375 10.7547V10.7327C47.375 10.4674 47.1362 10.2836 46.8049 10.2836H44.2393C43.9768 10.2836 43.7616 10.4899 43.7616 10.7402C43.7616 10.99 43.9768 11.1879 44.2393 11.1879H45.8723L43.954 13.2106C43.7692 13.4023 43.692 13.542 43.692 13.7544V13.7769C43.692 14.0417 43.9304 14.2255 44.2621 14.2255ZM40.3348 15.4237C41.0357 15.4237 41.3826 15.1227 41.729 14.3211L43.1705 11.0196C43.1929 10.968 43.2241 10.8433 43.2241 10.7552C43.2241 10.4604 42.9696 10.2396 42.6692 10.2396C42.3692 10.2396 42.1991 10.4313 42.1067 10.6666L41.2437 12.9537L40.35 10.6591C40.25 10.3947 40.0799 10.2396 39.7875 10.2396C39.4638 10.2396 39.2098 10.4604 39.2098 10.7763C39.2098 10.8504 39.2411 10.9601 39.271 11.0341L40.6817 14.1515L40.6429 14.2396C40.5348 14.4388 40.4348 14.4754 40.2263 14.4754C40.1424 14.4754 40.0799 14.4604 39.9799 14.4313C39.9179 14.411 39.8528 14.4011 39.7875 14.4022C39.5487 14.4022 39.325 14.586 39.325 14.8579C39.325 15.1298 39.5259 15.2624 39.6951 15.3206C39.8871 15.3876 40.0723 15.4237 40.3348 15.4237ZM38.4732 9.37232C38.4732 9.0634 38.2116 8.81354 37.8879 8.81354C37.5638 8.81354 37.3018 9.0634 37.3018 9.37232V10.7988C37.025 10.4828 36.6393 10.2105 36.0152 10.2105C35.0362 10.2105 34.1348 10.9314 34.1348 12.2473V12.2618C34.1348 13.5786 35.0522 14.2987 36.0152 14.2987C36.6241 14.2987 37.0165 14.0268 37.3018 13.6588V13.7104C37.3018 14.0193 37.5638 14.27 37.8879 14.27C38.2116 14.27 38.4728 14.0193 38.4728 13.7104V9.37232H38.4732ZM36.3161 11.1593C36.8625 11.1593 37.3179 11.5933 37.3179 12.2477V12.2618C37.3179 12.9167 36.8625 13.3503 36.3161 13.3503C35.7687 13.3503 35.3063 12.9167 35.3063 12.2618V12.2473C35.3063 11.5854 35.7687 11.1588 36.3161 11.1588V11.1593ZM32.0884 13.7108C32.0884 14.0193 32.35 14.2696 32.6737 14.2696C32.9973 14.2696 33.2598 14.0193 33.2598 13.7104V9.37232C33.2598 9.0634 32.9973 8.81354 32.6737 8.81354C32.35 8.81354 32.0888 9.0634 32.0888 9.37232V13.7104L32.0884 13.7108ZM31.0277 10.7988C31.0277 10.4903 30.7661 10.2396 30.4424 10.2396C30.1187 10.2396 29.8571 10.4899 29.8571 10.7992V12.4826C29.8571 13.0123 29.5719 13.2842 29.125 13.2842C28.6781 13.2842 28.4156 13.0123 28.4156 12.4822V10.7988C28.4156 10.4903 28.154 10.2396 27.8308 10.2396C27.5067 10.2396 27.2442 10.4899 27.2442 10.7992V12.8356C27.2442 13.7399 27.7607 14.2987 28.6469 14.2987C29.2406 14.2987 29.5871 13.9977 29.8567 13.6663V13.7104C29.8567 14.0193 30.1187 14.27 30.4424 14.27C30.7661 14.27 31.0277 14.0193 31.0277 13.7104V10.7988ZM22.5161 13.7104C22.5161 14.0193 22.7786 14.27 23.1018 14.27C23.4254 14.27 23.6875 14.0193 23.6875 13.7104V12.027C23.6875 11.4968 23.9728 11.2249 24.4196 11.2249C24.8665 11.2249 25.1281 11.4968 25.1281 12.027V13.7104C25.1281 14.0193 25.3906 14.27 25.7143 14.27C26.0379 14.27 26.2996 14.0193 26.2996 13.7104V11.6735C26.2996 10.7693 25.7835 10.2105 24.8969 10.2105C24.304 10.2105 23.9576 10.5124 23.6875 10.8429V9.37232C23.6875 9.0634 23.4254 8.81354 23.1018 8.81354C22.7786 8.81354 22.5161 9.0634 22.5161 9.37232V13.7104ZM17.5415 14.2255H21.0781C21.3638 14.2255 21.6027 14.0052 21.6027 13.7328C21.6027 13.4609 21.3638 13.2331 21.0781 13.2331H18.5893L21.3862 10.1298C21.5246 9.96768 21.6022 9.7989 21.6022 9.60015V9.57812C21.6022 9.30622 21.3634 9.07839 21.0777 9.07839H17.6339C17.3487 9.07839 17.1094 9.30622 17.1094 9.57812C17.1094 9.85046 17.3487 10.0708 17.6339 10.0708H20.0299L17.2326 13.174C17.0942 13.3283 17.0174 13.5046 17.0174 13.7029V13.7258C17.0174 13.9977 17.2562 14.2255 17.5411 14.2255H17.5415Z" fill="white"/>
<mask id="mask0_410_77" style="mask-type:alpha" maskUnits="userSpaceOnUse" x="0" y="0" width="51" height="26">
<path d="M0.5 0H50.417V25.8361H0.5V0Z" fill="#004E8F"/>
</mask>
<g mask="url(#mask0_410_77)">
<path fill-rule="evenodd" clip-rule="evenodd" d="M49.6861 9.68921C49.3156 9.68921 48.9553 9.98182 48.9553 10.4106C48.9553 10.8385 49.3156 11.132 49.6861 11.132C50.0589 11.132 50.4169 10.8385 50.4169 10.4106C50.4169 9.98182 50.0589 9.68921 49.6861 9.68921ZM49.6861 9.82009C49.9861 9.82009 50.2736 10.0585 50.2736 10.4106C50.2736 10.7618 49.9861 11.0002 49.6861 11.0002C49.6085 10.9997 49.5316 10.9839 49.4601 10.9539C49.3886 10.9239 49.3238 10.8803 49.2695 10.8255C49.2151 10.7707 49.1723 10.7058 49.1434 10.6346C49.1146 10.5634 49.1003 10.4873 49.1013 10.4106C49.1013 10.0585 49.3861 9.82009 49.6861 9.82009ZM49.6821 10.014H49.4156V10.7905H49.5134V10.497H49.6629L49.8839 10.7905H49.9946L49.7678 10.4934C49.9022 10.4648 49.9799 10.3736 49.9799 10.2586C49.9799 10.1171 49.8652 10.014 49.6821 10.014ZM49.6861 10.1052C49.8071 10.1052 49.8777 10.1638 49.8777 10.2586C49.8777 10.3555 49.8071 10.4084 49.6857 10.4084H49.5134V10.1052H49.6861Z" fill="white"/>
<path fill-rule="evenodd" clip-rule="evenodd" d="M5.32106 9.47023L1.67285 10.1564C1.51168 10.1863 1.33802 10.2348 1.17374 10.2167C1.0987 10.2081 1.02532 10.1888 0.955881 10.1594C0.865038 10.122 0.782676 10.067 0.713607 9.99768C0.644539 9.9284 0.590149 9.84623 0.553615 9.75597C0.517081 9.66571 0.499136 9.56917 0.500829 9.47199C0.502521 9.3748 0.523816 9.27893 0.563471 9.18996C0.638917 9.02118 0.843381 8.81979 0.967935 8.67569L3.25543 6.04131L1.35945 2.71596C1.3338 2.67251 1.3104 2.6278 1.28936 2.58199C1.24763 2.4894 1.22606 2.38918 1.22606 2.28784C1.22606 2.18649 1.24763 2.08628 1.28936 1.99369C1.35959 1.84022 1.4799 1.71442 1.63107 1.63637C1.78223 1.55833 1.95554 1.53255 2.12329 1.56314C2.2349 1.58298 2.39561 1.65657 2.51927 1.70504L5.97284 3.06718L8.684 0.248161C8.69829 0.233178 8.71347 0.219958 8.72864 0.205416C8.83772 0.104358 8.97432 0.0369313 9.12166 0.0114115C9.26901 -0.0141083 9.42069 0.00338846 9.55811 0.0617547C9.84829 0.184263 10.0184 0.46145 10.0135 0.749212C10.013 0.770365 10.013 0.790195 10.0117 0.810907L9.72597 4.65714L13.1036 6.1885C13.2251 6.2427 13.3898 6.30836 13.4804 6.37447C13.5908 6.4534 13.6769 6.56088 13.7294 6.68507C13.7818 6.80925 13.7985 6.9453 13.7775 7.07824C13.7566 7.21118 13.6989 7.33584 13.6108 7.43848C13.5227 7.54111 13.4076 7.61774 13.2782 7.65992C13.2277 7.67755 13.1813 7.68857 13.1295 7.70135L9.33356 8.61267C10.9452 17.1768 18.671 23.6689 27.9599 23.6689C33.6411 23.6689 38.738 21.2399 42.2085 17.3936C42.3157 17.272 42.4737 17.1953 42.6509 17.1953C43.1277 17.1953 43.3853 17.6977 43.1255 18.0815C43.0474 18.1965 42.9416 18.3283 42.8224 18.4649C42.2777 19.0898 41.6018 19.7433 40.9804 20.2994C37.138 23.7359 32.0072 25.8357 26.3715 25.8357C16.0769 25.8357 7.46838 18.8346 5.32106 9.46979V9.47023Z" fill="#FECC00"/>
</g>
</g>
<defs>
<clipPath id="clip0_410_77">
<rect width="50" height="26" fill="white" transform="translate(0.5)"/>
</clipPath>
</defs>
</svg>
