<svg width="15" height="16" viewBox="0 0 15 16" fill="none" xmlns="http://www.w3.org/2000/svg">
<path fill-rule="evenodd" clip-rule="evenodd" d="M12.4 6.54272C12.4 3.59166 10.8329 1.54349 8.80536 0.928773C8.73195 0.731541 8.61594 0.548184 8.45826 0.394328C7.91943 -0.131443 7.07981 -0.131443 6.54098 0.394328C6.38358 0.547908 6.2677 0.730883 6.19428 0.927712C4.16451 1.54004 2.59997 3.58359 2.59997 6.54272C2.59997 8.45747 2.22826 9.53038 1.54014 10.3079C1.4251 10.4379 1.11342 10.7357 0.902271 10.9374L0.902234 10.9374L0.902225 10.9374C0.80233 11.0329 0.724945 11.1068 0.701545 11.1313L0.499969 11.3436V13.8226H4.76177C4.90586 14.5947 5.30924 15.1112 6.03873 15.5736C6.93609 16.1423 8.06429 16.1423 8.96165 15.5736C9.60544 15.1656 10.0371 14.5385 10.2122 13.8226H14.5V11.3436L14.2984 11.1313C14.2772 11.109 14.2032 11.038 14.1064 10.9453L14.106 10.945L14.1059 10.9448L14.1058 10.9448L14.1058 10.9447C13.8952 10.743 13.5775 10.4387 13.4607 10.3062C12.7722 9.52501 12.4 8.45074 12.4 6.54272ZM8.71592 13.8226H6.2252C6.3241 14.0137 6.49267 14.158 6.768 14.3325C7.21758 14.6174 7.7828 14.6174 8.23238 14.3325C8.44058 14.2005 8.60327 14.0259 8.71592 13.8226ZM12.4285 11.2879C12.5758 11.455 12.8915 11.7605 13.1004 11.96V12.3687H1.90039V11.9603C2.10764 11.7631 2.42429 11.4579 2.57133 11.2918C3.50634 10.2353 4.00039 8.80926 4.00039 6.54273C4.00039 3.79473 5.63333 2.18994 7.50039 2.18994C9.36218 2.18994 11.0004 3.80301 11.0004 6.54273C11.0004 8.80199 11.4946 10.2284 12.4285 11.2879Z" fill="white"/>
</svg>
