<svg width="20" height="21" viewBox="0 0 20 21" fill="none" xmlns="http://www.w3.org/2000/svg">
<path d="M10 0.58075C4.48578 0.58075 0 5.06653 0 10.5807C0 16.095 4.48578 20.5807 10 20.5807C15.5142 20.5807 20 16.095 20 10.5807C20 5.06653 15.5142 0.58075 10 0.58075Z" fill="#C61515"/>
<path d="M10.7802 12.2119C10.7755 12.2691 10.7613 12.3206 10.7377 12.3663C10.7141 12.4121 10.6715 12.4521 10.61 12.4864C10.5533 12.515 10.4729 12.5379 10.3689 12.555C10.2696 12.5722 10.1467 12.5807 10.0001 12.5807C9.84881 12.5807 9.72351 12.5722 9.62422 12.555C9.52493 12.5379 9.44455 12.515 9.38309 12.4864C9.32635 12.4521 9.28616 12.4121 9.26252 12.3663C9.23888 12.3206 9.22469 12.2691 9.21997 12.2119L8.4292 5.08397C8.4292 5.00963 8.44338 4.94387 8.47175 4.88668C8.50012 4.8295 8.54977 4.78375 8.62069 4.74944C8.69634 4.70941 8.79563 4.68082 8.91856 4.66367C9.04622 4.64651 9.81098 4.58075 10.0001 4.58075C10.1892 4.58075 11.1573 4.63221 11.2803 4.65509C11.4032 4.67224 11.5001 4.70084 11.571 4.74086C11.6467 4.77517 11.6987 4.82092 11.7271 4.8781C11.7602 4.92957 11.7767 4.99247 11.7767 5.06681L10.7802 12.2119ZM11.0001 15.3284C11.0001 15.5629 10.9836 15.7602 10.9505 15.9203C10.9221 16.0804 10.8677 16.2091 10.7873 16.3063C10.7117 16.4035 10.61 16.4721 10.4824 16.5121C10.3547 16.5579 10.194 16.5807 10.0001 16.5807C9.80625 16.5807 9.64313 16.5579 9.51075 16.5121C9.38309 16.4721 9.28143 16.4035 9.20578 16.3063C9.13013 16.2091 9.07576 16.0804 9.04266 15.9203C9.01429 15.7602 9.00011 15.5629 9.00011 15.3284C9.00011 15.0883 9.01429 14.8881 9.04266 14.728C9.07576 14.5622 9.13013 14.4306 9.20578 14.3334C9.28143 14.2305 9.38309 14.159 9.51075 14.119C9.64313 14.0732 9.80625 14.0504 10.0001 14.0504C10.194 14.0504 10.3547 14.0732 10.4824 14.119C10.61 14.159 10.7117 14.2305 10.7873 14.3334C10.8677 14.4306 10.9221 14.5622 10.9505 14.728C10.9836 14.8881 11.0001 15.0883 11.0001 15.3284Z" fill="white"/>
</svg>
