<svg width="93" height="50" viewBox="0 0 93 50" fill="none" xmlns="http://www.w3.org/2000/svg">
<path fill-rule="evenodd" clip-rule="evenodd" d="M34.9457 14.8142C37.1251 14.8142 38.6567 13.6714 38.6567 11.6331V11.605C38.6567 9.81741 37.5006 9.07032 35.4507 8.52876C33.704 8.07419 33.2704 7.85331 33.2704 7.18126V7.15056C33.2704 6.6525 33.7189 6.25592 34.5695 6.25592C35.263 6.25592 35.9565 6.50581 36.6924 6.94502C36.8652 7.04737 37.0388 7.10707 37.2556 7.10707C37.8328 7.10707 38.2946 6.6525 38.2946 6.06659C38.2946 5.62652 38.0504 5.3195 37.8046 5.17195C36.8951 4.5869 35.827 4.26367 34.5985 4.26367C32.5345 4.26367 31.0611 5.49518 31.0611 7.3561V7.38509C31.0611 9.42255 32.3751 9.9931 34.4116 10.521C36.101 10.9602 36.4474 11.2536 36.4474 11.8242V11.8549C36.4474 12.4544 35.8976 12.8203 34.9881 12.8203C34.0063 12.8203 33.1691 12.4706 32.4041 11.8975C32.2185 11.7625 31.9962 11.6908 31.7687 11.6928C31.1907 11.6928 30.7289 12.1474 30.7289 12.7333C30.7289 13.0847 30.9024 13.4071 31.1475 13.5827C32.2592 14.3864 33.5861 14.8166 34.9457 14.8142ZM56.2276 8.71895H55.6147C55.4921 8.71973 55.3705 8.69568 55.257 8.64815C55.1435 8.60063 55.0402 8.53057 54.9531 8.442C54.866 8.35343 54.7968 8.24808 54.7494 8.13199C54.702 8.01589 54.6774 7.89134 54.6769 7.76546C54.6775 7.63966 54.7022 7.51522 54.7497 7.39926C54.7973 7.28331 54.8666 7.17813 54.9538 7.08977C55.041 7.00141 55.1444 6.93161 55.2579 6.88438C55.3715 6.83715 55.493 6.81341 55.6155 6.81454H56.2276V5.83206C56.2276 5.21716 56.7185 4.71824 57.3257 4.71824C57.932 4.71824 58.422 5.21716 58.422 5.83206V6.81454H59.6654C59.7879 6.81341 59.9094 6.83715 60.023 6.88438C60.1365 6.93161 60.2399 7.00141 60.3271 7.08977C60.4143 7.17813 60.4837 7.28331 60.5312 7.39926C60.5787 7.51522 60.6034 7.63966 60.604 7.76546C60.6037 7.89148 60.5793 8.0162 60.5319 8.13245C60.4845 8.24871 60.4152 8.35418 60.328 8.44281C60.2407 8.53144 60.1373 8.60147 60.0236 8.64886C59.9099 8.69625 59.7881 8.72007 59.6654 8.71895H58.4229V12.074C58.4229 12.5866 58.6396 12.8365 59.1297 12.8365C59.2019 12.8365 59.3473 12.8203 59.3897 12.8203C59.8822 12.8203 60.2991 13.2314 60.2991 13.7448C60.2991 14.1396 60.0408 14.4629 59.7368 14.5797C59.3332 14.7409 58.9561 14.798 58.481 14.798C57.138 14.798 56.2276 14.2582 56.2276 12.4399V8.71895ZM63.5201 17.0564C64.8341 17.0564 65.4836 16.4551 66.134 14.8577L68.8333 8.27888C68.8782 8.17654 68.9347 7.92751 68.9347 7.75182C68.9347 7.16506 68.4587 6.72584 67.8964 6.72584C67.3317 6.72584 67.016 7.10707 66.8416 7.57528L65.2236 12.1329L63.55 7.56163C63.3607 7.03287 63.0442 6.72584 62.4952 6.72584C61.8889 6.72584 61.4113 7.16506 61.4113 7.79446C61.4113 7.94115 61.4694 8.16204 61.5276 8.30787L64.1705 14.52L64.0982 14.6957C63.8964 15.0923 63.7078 15.1665 63.3183 15.1665C63.1588 15.1665 63.0442 15.1358 62.8565 15.0778C62.7408 15.036 62.6186 15.0161 62.496 15.0189C62.0475 15.0189 61.6289 15.3857 61.6289 15.9272C61.6289 16.4696 62.0043 16.7332 62.3224 16.85C62.6837 16.9822 63.0301 17.0564 63.5201 17.0564ZM50.3106 8.71895H49.6503C49.1303 8.71895 48.7117 8.29252 48.7117 7.76546C48.7123 7.63966 48.737 7.51522 48.7845 7.39926C48.832 7.28331 48.9014 7.17813 48.9886 7.08977C49.0758 7.00141 49.1791 6.93161 49.2927 6.88438C49.4063 6.83715 49.5278 6.81341 49.6503 6.81454H50.3106V5.83206C50.3106 5.21716 50.8023 4.71824 51.4086 4.71824C52.0149 4.71824 52.5058 5.21716 52.5058 5.83206V6.81454H53.4734C53.9934 6.81454 54.412 7.2384 54.412 7.76546C54.412 8.29338 53.9934 8.71895 53.4734 8.71895H52.5066V12.074C52.5066 12.5866 52.7243 12.8365 53.2143 12.8365C53.2874 12.8365 53.4319 12.8203 53.4743 12.8203C53.966 12.8203 54.3854 13.2314 54.3854 13.7448C54.3854 14.1396 54.1254 14.4629 53.8206 14.5797C53.4178 14.7409 53.0415 14.798 52.5648 14.798C51.2226 14.798 50.3114 14.2582 50.3114 12.4399V8.71895H50.3106ZM45.8703 7.83966C45.3504 7.20855 44.6286 6.667 43.4591 6.667C41.6252 6.667 39.9358 8.10319 39.9358 10.7257V10.7547C39.9358 13.3789 41.6551 14.8142 43.4591 14.8142C44.6004 14.8142 45.3363 14.2727 45.8703 13.5384V13.6424C45.8703 14.2582 46.362 14.7554 46.9692 14.7554C47.5755 14.7554 48.0655 14.2582 48.0655 13.6424V7.83966C48.0655 7.22391 47.5755 6.72584 46.9692 6.72584C46.3629 6.72584 45.8703 7.22391 45.8703 7.82516V7.83966ZM44.0223 8.55691C45.0472 8.55691 45.8994 9.42255 45.8994 10.7257V10.7547C45.8994 12.0596 45.0472 12.9243 44.0223 12.9243C42.9973 12.9243 42.131 12.0596 42.131 10.7547V10.7257C42.131 9.40634 42.9973 8.55691 44.0223 8.55691ZM81.4166 27.5302H86.3195C86.8062 27.5302 87.2082 27.1456 87.2082 26.662C87.2082 26.1776 86.8062 25.7802 86.3195 25.7802H83.1376L86.7207 21.8656C87.0646 21.4963 87.2082 21.226 87.2082 20.8132V20.7705C87.2082 20.2571 86.7639 19.9015 86.1476 19.9015H81.3743C80.8859 19.9015 80.4855 20.3006 80.4855 20.785C80.4855 21.2686 80.8859 21.6515 81.3743 21.6515H84.4125L80.8435 25.5661C80.4997 25.9371 80.356 26.2074 80.356 26.6185V26.662C80.356 27.1746 80.7995 27.5302 81.4166 27.5302ZM74.11 29.8491C75.414 29.8491 76.0594 29.2666 76.7039 27.7153L79.3858 21.3257C79.4274 21.226 79.4855 20.9846 79.4855 20.814C79.4855 20.2435 79.0121 19.8162 78.4531 19.8162C77.895 19.8162 77.5785 20.1872 77.4066 20.6426L75.8011 25.0689L74.1382 20.6281C73.9522 20.1164 73.6357 19.8162 73.0917 19.8162C72.4895 19.8162 72.0169 20.2435 72.0169 20.855C72.0169 20.9982 72.0751 21.2106 72.1307 21.3539L74.7554 27.3869L74.6831 27.5575C74.4821 27.943 74.2961 28.0138 73.9082 28.0138C73.752 28.0138 73.6357 27.9848 73.4497 27.9285C73.3343 27.8891 73.2133 27.8701 73.0917 27.8722C72.6474 27.8722 72.2312 28.2278 72.2312 28.754C72.2312 29.2802 72.605 29.537 72.9198 29.6495C73.2769 29.7792 73.6216 29.8491 74.11 29.8491ZM70.6465 18.1378C70.6465 17.5399 70.1598 17.0564 69.5576 17.0564C68.9546 17.0564 68.4671 17.5399 68.4671 18.1378V20.8985C67.9521 20.287 67.2345 19.7599 66.0733 19.7599C64.2519 19.7599 62.5749 21.1552 62.5749 23.7018V23.7299C62.5749 26.2782 64.2818 27.6718 66.0733 27.6718C67.2062 27.6718 67.9363 27.1456 68.4671 26.4334V26.5332C68.4671 27.1311 68.9546 27.6163 69.5576 27.6163C70.1598 27.6163 70.6457 27.1311 70.6457 26.5332V18.1378H70.6465ZM66.6331 21.5961C67.6498 21.5961 68.497 22.4361 68.497 23.7026V23.7299C68.497 24.9972 67.6498 25.8365 66.6331 25.8365C65.6148 25.8365 64.7544 24.9972 64.7544 23.7299V23.7018C64.7544 22.4208 65.6148 21.5952 66.6331 21.5952V21.5961ZM58.7676 26.5341C58.7676 27.1311 59.2543 27.6155 59.8564 27.6155C60.4586 27.6155 60.947 27.1311 60.947 26.5332V18.1378C60.947 17.5399 60.4586 17.0564 59.8564 17.0564C59.2543 17.0564 58.7684 17.5399 58.7684 18.1378V26.5332L58.7676 26.5341ZM56.7941 20.8985C56.7941 20.3015 56.3074 19.8162 55.7052 19.8162C55.103 19.8162 54.6163 20.3006 54.6163 20.8993V24.1572C54.6163 25.1823 54.0856 25.7085 53.2542 25.7085C52.4228 25.7085 51.9344 25.1823 51.9344 24.1563V20.8985C51.9344 20.3015 51.4477 19.8162 50.8463 19.8162C50.2433 19.8162 49.7549 20.3006 49.7549 20.8993V24.8403C49.7549 26.5904 50.7159 27.6718 52.3646 27.6718C53.4693 27.6718 54.1138 27.0893 54.6155 26.4479V26.5332C54.6155 27.1311 55.103 27.6163 55.7052 27.6163C56.3074 27.6163 56.7941 27.1311 56.7941 26.5332V20.8985ZM40.9583 26.5332C40.9583 27.1311 41.4467 27.6163 42.048 27.6163C42.6502 27.6163 43.1377 27.1311 43.1377 26.5332V23.2753C43.1377 22.2494 43.6685 21.7232 44.4999 21.7232C45.3313 21.7232 45.818 22.2494 45.818 23.2753V26.5332C45.818 27.1311 46.3064 27.6163 46.9085 27.6163C47.5107 27.6163 47.9974 27.1311 47.9974 26.5332V22.5914C47.9974 20.8413 47.0373 19.7599 45.3877 19.7599C44.2847 19.7599 43.6402 20.3441 43.1377 20.9837V18.1378C43.1377 17.5399 42.6502 17.0564 42.048 17.0564C41.4467 17.0564 40.9583 17.5399 40.9583 18.1378V26.5332ZM31.7031 27.5302H38.283C38.8145 27.5302 39.2589 27.1038 39.2589 26.5767C39.2589 26.0505 38.8145 25.6096 38.283 25.6096H33.6525L38.8561 19.6038C39.1136 19.29 39.2581 18.9634 39.2581 18.5787V18.5361C39.2581 18.0099 38.8137 17.5689 38.2821 17.5689H31.8751C31.3443 17.5689 30.8991 18.0099 30.8991 18.5361C30.8991 19.0631 31.3443 19.4896 31.8751 19.4896H36.3328L31.1284 25.4953C30.8709 25.7938 30.728 26.1349 30.728 26.5187V26.5631C30.728 27.0893 31.1724 27.5302 31.7023 27.5302H31.7031Z" fill="#2B5DA8"/>
<path fill-rule="evenodd" clip-rule="evenodd" d="M8.96823 18.3278L2.18074 19.6557C1.8809 19.7137 1.5578 19.8075 1.25215 19.7725C1.11254 19.7559 0.976013 19.7185 0.846829 19.6617C0.677814 19.5891 0.52458 19.4827 0.396078 19.3486C0.267577 19.2145 0.166384 19.0555 0.098413 18.8808C0.0304419 18.7061 -0.00294472 18.5193 0.000203635 18.3312C0.00335199 18.1431 0.0429722 17.9576 0.11675 17.7854C0.257117 17.4588 0.637523 17.069 0.869254 16.7901L5.12514 11.6918L1.59767 5.25621C1.54994 5.17213 1.50641 5.08559 1.46727 4.99695C1.38962 4.81775 1.3495 4.62381 1.3495 4.42767C1.3495 4.23154 1.38962 4.03759 1.46727 3.8584C1.59793 3.56139 1.82176 3.31793 2.10301 3.16689C2.38426 3.01584 2.70669 2.96595 3.01879 3.02517C3.22644 3.06354 3.52545 3.20597 3.75552 3.29978L10.1809 5.93593L15.225 0.480269C15.2516 0.451272 15.2798 0.425687 15.308 0.397543C15.511 0.201964 15.7651 0.0714735 16.0392 0.0220848C16.3134 -0.027304 16.5956 0.00655772 16.8513 0.119514C17.3911 0.356606 17.7076 0.893047 17.6984 1.44996C17.6976 1.49089 17.6976 1.52927 17.6951 1.56935L17.1636 9.01301L23.4477 11.9767C23.6736 12.0816 23.9801 12.2086 24.1487 12.3366C24.3541 12.4893 24.5143 12.6973 24.6119 12.9377C24.7094 13.178 24.7404 13.4413 24.7015 13.6986C24.6626 13.9559 24.5553 14.1971 24.3913 14.3957C24.2274 14.5944 24.0133 14.7427 23.7725 14.8243C23.6786 14.8584 23.5922 14.8797 23.4959 14.9045L16.4335 16.6682C19.4319 33.2424 33.8059 45.8065 51.0877 45.8065C61.6577 45.8065 71.1404 41.1057 77.5973 33.662C77.7967 33.4266 78.0907 33.2782 78.4204 33.2782C79.3075 33.2782 79.7867 34.2505 79.3033 34.9933C79.158 35.2159 78.9611 35.4709 78.7394 35.7353C77.7261 36.9446 76.4686 38.2094 75.3124 39.2857C68.1636 45.9362 58.6178 50 48.1325 50C28.9794 50 12.9633 36.4508 8.96823 18.327V18.3278Z" fill="#FECC00"/>
<path fill-rule="evenodd" clip-rule="evenodd" d="M91.5082 18.7519C90.8188 18.7519 90.1485 19.3182 90.1485 20.148C90.1485 20.9761 90.8188 21.5441 91.5082 21.5441C92.2017 21.5441 92.8678 20.9761 92.8678 20.148C92.8678 19.3182 92.2017 18.7519 91.5082 18.7519ZM91.5082 19.0052C92.0663 19.0052 92.6012 19.4666 92.6012 20.148C92.6012 20.8277 92.0663 21.2891 91.5082 21.2891C91.3636 21.288 91.2207 21.2576 91.0877 21.1995C90.9546 21.1415 90.8341 21.057 90.733 20.951C90.6318 20.8449 90.5521 20.7194 90.4984 20.5816C90.4447 20.4438 90.4181 20.2964 90.4201 20.148C90.4201 19.4666 90.95 19.0052 91.5082 19.0052ZM91.5007 19.3804H91.0048V20.8832H91.1867V20.3152H91.465L91.8761 20.8832H92.0821L91.6601 20.3083C91.9102 20.2529 92.0547 20.0764 92.0547 19.8538C92.0547 19.58 91.8412 19.3804 91.5007 19.3804ZM91.5082 19.557C91.7332 19.557 91.8645 19.6704 91.8645 19.8538C91.8645 20.0414 91.7332 20.1437 91.5073 20.1437H91.1867V19.557H91.5082Z" fill="#2B5DA8"/>
</svg>
