<svg width="26" height="30" viewBox="0 0 26 30" fill="none" xmlns="http://www.w3.org/2000/svg">
<path fill-rule="evenodd" clip-rule="evenodd" d="M18.6 13.3605C18.6 10.0408 16.8093 7.73674 14.4924 7.045C14.4085 6.82307 14.2759 6.61674 14.0956 6.44362C13.4798 5.85213 12.5203 5.85213 11.9045 6.44362C11.7246 6.61635 11.5922 6.82214 11.5083 7.0435C9.18831 7.73219 7.4 10.0313 7.4 13.3605C7.4 15.5146 6.97519 16.7217 6.18877 17.5964C6.05728 17.7426 5.70103 18.0777 5.45972 18.3046L5.45965 18.3047L5.45942 18.3049C5.3454 18.4121 5.25709 18.4952 5.23037 18.5227L5 18.7615V21.5504H9.8705C10.0352 22.4188 10.4962 22.9998 11.3298 23.5198C12.3554 24.1596 13.6447 24.1596 14.6703 23.5198C15.4059 23.0609 15.8992 22.3557 16.0994 21.5504H21V18.7615L20.7696 18.5227C20.7454 18.4975 20.6605 18.4175 20.5496 18.3129L20.5496 18.3129L20.5496 18.3129C20.309 18.086 19.9458 17.7435 19.8123 17.5944C19.0253 16.7156 18.6 15.5071 18.6 13.3605ZM14.3892 21.5504H11.5431C11.6562 21.7652 11.8488 21.9274 12.1633 22.1236C12.6771 22.4441 13.323 22.4441 13.8368 22.1236C14.0746 21.9752 14.2605 21.779 14.3892 21.5504ZM18.632 18.6981C18.8003 18.8861 19.1611 19.2297 19.3998 19.4542V19.914H6.59985V19.4546C6.83671 19.2327 7.1986 18.8894 7.36664 18.7025C8.43523 17.5139 8.99985 15.9096 8.99985 13.3598C8.99985 10.2683 10.8661 8.46289 12.9999 8.46289C15.1276 8.46289 16.9998 10.2776 16.9998 13.3598C16.9998 15.9014 17.5646 17.5062 18.632 18.6981Z" fill="#2B5DA8"/>
<circle cx="22" cy="4" r="4" fill="#FECC00"/>
</svg>
