<svg width="16" height="18" viewBox="0 0 16 18" fill="none" xmlns="http://www.w3.org/2000/svg">
<path fill-rule="evenodd" clip-rule="evenodd" d="M13.6 7.36054C13.6 4.04084 11.8093 1.73674 9.49238 1.045C9.40848 0.823066 9.27588 0.616742 9.09564 0.443619C8.47983 -0.147873 7.52027 -0.147873 6.90447 0.443619C6.72463 0.616352 6.59222 0.822136 6.5083 1.0435C4.18831 1.73219 2.4 4.03127 2.4 7.36054C2.4 9.51463 1.97519 10.7217 1.18877 11.5964C1.05728 11.7426 0.701034 12.0777 0.459722 12.3046L0.459649 12.3047L0.459425 12.3049C0.345402 12.4121 0.257091 12.4952 0.230372 12.5227L0 12.7615V15.5504H4.8705C5.03524 16.4188 5.49624 16.9998 6.32981 17.5198C7.35536 18.1596 8.64473 18.1596 9.67029 17.5198C10.4059 17.0609 10.8992 16.3557 11.0994 15.5504H16V12.7615L15.7696 12.5227C15.7454 12.4975 15.6605 12.4175 15.5496 12.3129L15.5496 12.3129L15.5496 12.3129C15.309 12.086 14.9458 11.7435 14.8123 11.5944C14.0253 10.7156 13.6 9.50707 13.6 7.36054ZM9.38923 15.5504H6.54313C6.65618 15.7652 6.84879 15.9274 7.16326 16.1236C7.67706 16.4441 8.32303 16.4441 8.83684 16.1236C9.07464 15.9752 9.26048 15.779 9.38923 15.5504ZM13.632 12.6981C13.8003 12.8861 14.1611 13.2297 14.3998 13.4542V13.914H1.59985V13.4546C1.83671 13.2327 2.1986 12.8894 2.36664 12.7025C3.43523 11.5139 3.99985 9.90963 3.99985 7.35978C3.99985 4.26827 5.86607 2.46289 7.99985 2.46289C10.1276 2.46289 11.9998 4.27759 11.9998 7.35978C11.9998 9.90144 12.5646 11.5062 13.632 12.6981Z" fill="#2B5DA8"/>
</svg>
